
<region>
sample=../Samples/green/ord/twang_e3_p_rr2.flac
lokey=40
hikey=40
hivel=42
seq_length=4
seq_position=4
pitch_keycenter=40
bend_up=234
bend_down=-234
lfo02_pitch_oncc113=104
amp_velcurve_42=1

<region>
sample=../Samples/green/ord/twang_e3_p_rr1.flac
lokey=40
hikey=40
hivel=42
seq_length=4
seq_position=3
pitch_keycenter=40
bend_up=234
bend_down=-234
lfo02_pitch_oncc113=104
amp_velcurve_42=1

<region>
sample=../Samples/green/ord/twang_e3_p_rr2.flac
lokey=40
hikey=40
hivel=42
seq_length=4
seq_position=2
pitch_keycenter=40
bend_up=234
bend_down=-234
lfo02_pitch_oncc113=104
amp_velcurve_42=1

<region>
sample=../Samples/green/ord/twang_e3_p_rr1.flac
lokey=40
hikey=40
hivel=42
seq_length=4
pitch_keycenter=40
bend_up=234
bend_down=-234
lfo02_pitch_oncc113=104
amp_velcurve_42=1

<region>
sample=../Samples/green/ord/twang_e3_mf_rr4.flac
lokey=40
hikey=40
lovel=43
hivel=84
seq_length=4
seq_position=4
pitch_keycenter=40
bend_up=234
bend_down=-234
lfo02_pitch_oncc113=104
amp_velcurve_84=1

<region>
sample=../Samples/green/ord/twang_e3_mf_rr3.flac
lokey=40
hikey=40
lovel=43
hivel=84
seq_length=4
seq_position=3
pitch_keycenter=40
bend_up=234
bend_down=-234
lfo02_pitch_oncc113=104
amp_velcurve_84=1

<region>
sample=../Samples/green/ord/twang_e3_mf_rr2.flac
lokey=40
hikey=40
lovel=43
hivel=84
seq_length=4
seq_position=2
pitch_keycenter=40
bend_up=234
bend_down=-234
lfo02_pitch_oncc113=104
amp_velcurve_84=1

<region>
sample=../Samples/green/ord/twang_e3_mf_rr1.flac
lokey=40
hikey=40
lovel=43
hivel=84
seq_length=4
pitch_keycenter=40
bend_up=234
bend_down=-234
lfo02_pitch_oncc113=104
amp_velcurve_84=1

<region>
sample=../Samples/green/ord/twang_e3_f_rr4.flac
lokey=40
hikey=40
lovel=85
seq_length=4
seq_position=4
pitch_keycenter=40
bend_up=234
bend_down=-234
lfo02_pitch_oncc113=104

<region>
sample=../Samples/green/ord/twang_e3_f_rr3.flac
lokey=40
hikey=40
lovel=85
seq_length=4
seq_position=3
pitch_keycenter=40
bend_up=234
bend_down=-234
lfo02_pitch_oncc113=104

<region>
sample=../Samples/green/ord/twang_e3_f_rr2.flac
lokey=40
hikey=40
lovel=85
seq_length=4
seq_position=2
pitch_keycenter=40
bend_up=234
bend_down=-234
lfo02_pitch_oncc113=104

<region>
sample=../Samples/green/ord/twang_e3_f_rr1.flac
lokey=40
hikey=40
lovel=85
seq_length=4
pitch_keycenter=40
bend_up=234
bend_down=-234
lfo02_pitch_oncc113=104

<region>
sample=../Samples/green/ord/twang_f3_p_rr2.flac
lokey=41
hikey=41
hivel=42
seq_length=4
seq_position=4
pitch_keycenter=41
bend_up=234
bend_down=-234
lfo02_pitch_oncc113=104
amp_velcurve_42=1

<region>
sample=../Samples/green/ord/twang_f3_p_rr1.flac
lokey=41
hikey=41
hivel=42
seq_length=4
seq_position=3
pitch_keycenter=41
bend_up=234
bend_down=-234
lfo02_pitch_oncc113=104
amp_velcurve_42=1

<region>
sample=../Samples/green/ord/twang_f3_p_rr2.flac
lokey=41
hikey=41
hivel=42
seq_length=4
seq_position=2
pitch_keycenter=41
bend_up=234
bend_down=-234
lfo02_pitch_oncc113=104
amp_velcurve_42=1

<region>
sample=../Samples/green/ord/twang_f3_p_rr1.flac
lokey=41
hikey=41
hivel=42
seq_length=4
pitch_keycenter=41
bend_up=234
bend_down=-234
lfo02_pitch_oncc113=104
amp_velcurve_42=1

<region>
sample=../Samples/green/ord/twang_f3_mf_rr4.flac
lokey=41
hikey=41
lovel=43
hivel=84
seq_length=4
seq_position=4
pitch_keycenter=41
bend_up=234
bend_down=-234
lfo02_pitch_oncc113=104
amp_velcurve_84=1

<region>
sample=../Samples/green/ord/twang_f3_mf_rr3.flac
lokey=41
hikey=41
lovel=43
hivel=84
seq_length=4
seq_position=3
pitch_keycenter=41
bend_up=234
bend_down=-234
lfo02_pitch_oncc113=104
amp_velcurve_84=1

<region>
sample=../Samples/green/ord/twang_f3_mf_rr2.flac
lokey=41
hikey=41
lovel=43
hivel=84
seq_length=4
seq_position=2
pitch_keycenter=41
bend_up=234
bend_down=-234
lfo02_pitch_oncc113=104
amp_velcurve_84=1

<region>
sample=../Samples/green/ord/twang_f3_mf_rr1.flac
lokey=41
hikey=41
lovel=43
hivel=84
seq_length=4
pitch_keycenter=41
bend_up=234
bend_down=-234
lfo02_pitch_oncc113=104
amp_velcurve_84=1

<region>
sample=../Samples/green/ord/twang_f3_f_rr4.flac
lokey=41
hikey=41
lovel=85
seq_length=4
seq_position=4
pitch_keycenter=41
bend_up=234
bend_down=-234
lfo02_pitch_oncc113=104

<region>
sample=../Samples/green/ord/twang_f3_f_rr3.flac
lokey=41
hikey=41
lovel=85
seq_length=4
seq_position=3
pitch_keycenter=41
bend_up=234
bend_down=-234
lfo02_pitch_oncc113=104

<region>
sample=../Samples/green/ord/twang_f3_f_rr2.flac
lokey=41
hikey=41
lovel=85
seq_length=4
seq_position=2
pitch_keycenter=41
bend_up=234
bend_down=-234
lfo02_pitch_oncc113=104

<region>
sample=../Samples/green/ord/twang_f3_f_rr1.flac
lokey=41
hikey=41
lovel=85
seq_length=4
pitch_keycenter=41
bend_up=234
bend_down=-234
lfo02_pitch_oncc113=104

<region>
sample=../Samples/green/ord/twang_gb3_p_rr2.flac
lokey=42
hikey=42
hivel=42
seq_length=4
seq_position=4
pitch_keycenter=42
bend_up=234
bend_down=-234
lfo02_pitch_oncc113=104
amp_velcurve_42=1

<region>
sample=../Samples/green/ord/twang_gb3_p_rr1.flac
lokey=42
hikey=42
hivel=42
seq_length=4
seq_position=3
pitch_keycenter=42
bend_up=234
bend_down=-234
lfo02_pitch_oncc113=104
amp_velcurve_42=1

<region>
sample=../Samples/green/ord/twang_gb3_p_rr2.flac
lokey=42
hikey=42
hivel=42
seq_length=4
seq_position=2
pitch_keycenter=42
bend_up=234
bend_down=-234
lfo02_pitch_oncc113=104
amp_velcurve_42=1

<region>
sample=../Samples/green/ord/twang_gb3_p_rr1.flac
lokey=42
hikey=42
hivel=42
seq_length=4
pitch_keycenter=42
bend_up=234
bend_down=-234
lfo02_pitch_oncc113=104
amp_velcurve_42=1

<region>
sample=../Samples/green/ord/twang_gb3_mf_rr4.flac
lokey=42
hikey=42
lovel=43
hivel=84
seq_length=4
seq_position=4
pitch_keycenter=42
bend_up=234
bend_down=-234
lfo02_pitch_oncc113=104
amp_velcurve_84=1

<region>
sample=../Samples/green/ord/twang_gb3_mf_rr3.flac
lokey=42
hikey=42
lovel=43
hivel=84
seq_length=4
seq_position=3
pitch_keycenter=42
bend_up=234
bend_down=-234
lfo02_pitch_oncc113=104
amp_velcurve_84=1

<region>
sample=../Samples/green/ord/twang_gb3_mf_rr2.flac
lokey=42
hikey=42
lovel=43
hivel=84
seq_length=4
seq_position=2
pitch_keycenter=42
bend_up=234
bend_down=-234
lfo02_pitch_oncc113=104
amp_velcurve_84=1

<region>
sample=../Samples/green/ord/twang_gb3_mf_rr1.flac
lokey=42
hikey=42
lovel=43
hivel=84
seq_length=4
pitch_keycenter=42
bend_up=234
bend_down=-234
lfo02_pitch_oncc113=104
amp_velcurve_84=1

<region>
sample=../Samples/green/ord/twang_gb3_f_rr4.flac
lokey=42
hikey=42
lovel=85
seq_length=4
seq_position=4
pitch_keycenter=42
bend_up=234
bend_down=-234
lfo02_pitch_oncc113=104

<region>
sample=../Samples/green/ord/twang_gb3_f_rr3.flac
lokey=42
hikey=42
lovel=85
seq_length=4
seq_position=3
pitch_keycenter=42
bend_up=234
bend_down=-234
lfo02_pitch_oncc113=104

<region>
sample=../Samples/green/ord/twang_gb3_f_rr2.flac
lokey=42
hikey=42
lovel=85
seq_length=4
seq_position=2
pitch_keycenter=42
bend_up=234
bend_down=-234
lfo02_pitch_oncc113=104

<region>
sample=../Samples/green/ord/twang_gb3_f_rr1.flac
lokey=42
hikey=42
lovel=85
seq_length=4
pitch_keycenter=42
bend_up=234
bend_down=-234
lfo02_pitch_oncc113=104

<region>
sample=../Samples/green/ord/twang_g3_p_rr2.flac
lokey=43
hikey=43
hivel=42
seq_length=4
seq_position=4
pitch_keycenter=43
bend_up=234
bend_down=-234
lfo02_pitch_oncc113=104
amp_velcurve_42=1

<region>
sample=../Samples/green/ord/twang_g3_p_rr1.flac
lokey=43
hikey=43
hivel=42
seq_length=4
seq_position=3
pitch_keycenter=43
bend_up=234
bend_down=-234
lfo02_pitch_oncc113=104
amp_velcurve_42=1

<region>
sample=../Samples/green/ord/twang_g3_p_rr2.flac
lokey=43
hikey=43
hivel=42
seq_length=4
seq_position=2
pitch_keycenter=43
bend_up=234
bend_down=-234
lfo02_pitch_oncc113=104
amp_velcurve_42=1

<region>
sample=../Samples/green/ord/twang_g3_p_rr1.flac
lokey=43
hikey=43
hivel=42
seq_length=4
pitch_keycenter=43
bend_up=234
bend_down=-234
lfo02_pitch_oncc113=104
amp_velcurve_42=1

<region>
sample=../Samples/green/ord/twang_g3_mf_rr4.flac
lokey=43
hikey=43
lovel=43
hivel=84
seq_length=4
seq_position=4
pitch_keycenter=43
bend_up=234
bend_down=-234
lfo02_pitch_oncc113=104
amp_velcurve_84=1

<region>
sample=../Samples/green/ord/twang_g3_mf_rr3.flac
lokey=43
hikey=43
lovel=43
hivel=84
seq_length=4
seq_position=3
pitch_keycenter=43
bend_up=234
bend_down=-234
lfo02_pitch_oncc113=104
amp_velcurve_84=1

<region>
sample=../Samples/green/ord/twang_g3_mf_rr2.flac
lokey=43
hikey=43
lovel=43
hivel=84
seq_length=4
seq_position=2
pitch_keycenter=43
bend_up=234
bend_down=-234
lfo02_pitch_oncc113=104
amp_velcurve_84=1

<region>
sample=../Samples/green/ord/twang_g3_mf_rr1.flac
lokey=43
hikey=43
lovel=43
hivel=84
seq_length=4
pitch_keycenter=43
bend_up=234
bend_down=-234
lfo02_pitch_oncc113=104
amp_velcurve_84=1

<region>
sample=../Samples/green/ord/twang_g3_f_rr4.flac
lokey=43
hikey=43
lovel=85
seq_length=4
seq_position=4
pitch_keycenter=43
bend_up=234
bend_down=-234
lfo02_pitch_oncc113=104

<region>
sample=../Samples/green/ord/twang_g3_f_rr3.flac
lokey=43
hikey=43
lovel=85
seq_length=4
seq_position=3
pitch_keycenter=43
bend_up=234
bend_down=-234
lfo02_pitch_oncc113=104

<region>
sample=../Samples/green/ord/twang_g3_f_rr2.flac
lokey=43
hikey=43
lovel=85
seq_length=4
seq_position=2
pitch_keycenter=43
bend_up=234
bend_down=-234
lfo02_pitch_oncc113=104

<region>
sample=../Samples/green/ord/twang_g3_f_rr1.flac
lokey=43
hikey=43
lovel=85
seq_length=4
pitch_keycenter=43
bend_up=234
bend_down=-234
lfo02_pitch_oncc113=104

<region>
sample=../Samples/green/ord/twang_ab3_p_rr2.flac
lokey=44
hikey=44
hivel=42
seq_length=4
seq_position=4
pitch_keycenter=44
bend_up=234
bend_down=-234
lfo02_pitch_oncc113=104
amp_velcurve_42=1

<region>
sample=../Samples/green/ord/twang_ab3_p_rr1.flac
lokey=44
hikey=44
hivel=42
seq_length=4
seq_position=3
pitch_keycenter=44
bend_up=234
bend_down=-234
lfo02_pitch_oncc113=104
amp_velcurve_42=1

<region>
sample=../Samples/green/ord/twang_ab3_p_rr2.flac
lokey=44
hikey=44
hivel=42
seq_length=4
seq_position=2
pitch_keycenter=44
bend_up=234
bend_down=-234
lfo02_pitch_oncc113=104
amp_velcurve_42=1

<region>
sample=../Samples/green/ord/twang_ab3_p_rr1.flac
lokey=44
hikey=44
hivel=42
seq_length=4
pitch_keycenter=44
bend_up=234
bend_down=-234
lfo02_pitch_oncc113=104
amp_velcurve_42=1

<region>
sample=../Samples/green/ord/twang_ab3_mf_rr4.flac
lokey=44
hikey=44
lovel=43
hivel=84
seq_length=4
seq_position=4
pitch_keycenter=44
bend_up=234
bend_down=-234
lfo02_pitch_oncc113=104
amp_velcurve_84=1

<region>
sample=../Samples/green/ord/twang_ab3_mf_rr3.flac
lokey=44
hikey=44
lovel=43
hivel=84
seq_length=4
seq_position=3
pitch_keycenter=44
bend_up=234
bend_down=-234
lfo02_pitch_oncc113=104
amp_velcurve_84=1

<region>
sample=../Samples/green/ord/twang_ab3_mf_rr2.flac
lokey=44
hikey=44
lovel=43
hivel=84
seq_length=4
seq_position=2
pitch_keycenter=44
bend_up=234
bend_down=-234
lfo02_pitch_oncc113=104
amp_velcurve_84=1

<region>
sample=../Samples/green/ord/twang_ab3_mf_rr1.flac
lokey=44
hikey=44
lovel=43
hivel=84
seq_length=4
pitch_keycenter=44
bend_up=234
bend_down=-234
lfo02_pitch_oncc113=104
amp_velcurve_84=1

<region>
sample=../Samples/green/ord/twang_ab3_f_rr4.flac
lokey=44
hikey=44
lovel=85
seq_length=4
seq_position=4
pitch_keycenter=44
bend_up=234
bend_down=-234
lfo02_pitch_oncc113=104

<region>
sample=../Samples/green/ord/twang_ab3_f_rr3.flac
lokey=44
hikey=44
lovel=85
seq_length=4
seq_position=3
pitch_keycenter=44
bend_up=234
bend_down=-234
lfo02_pitch_oncc113=104

<region>
sample=../Samples/green/ord/twang_ab3_f_rr2.flac
lokey=44
hikey=44
lovel=85
seq_length=4
seq_position=2
pitch_keycenter=44
bend_up=234
bend_down=-234
lfo02_pitch_oncc113=104

<region>
sample=../Samples/green/ord/twang_ab3_f_rr1.flac
lokey=44
hikey=44
lovel=85
seq_length=4
pitch_keycenter=44
bend_up=234
bend_down=-234
lfo02_pitch_oncc113=104

<region>
sample=../Samples/green/ord/twang_a3_p_rr2.flac
lokey=45
hikey=45
hivel=42
seq_length=4
seq_position=4
pitch_keycenter=45
bend_up=155
bend_down=-155
lfo02_pitch_oncc113=69
amp_velcurve_42=1

<region>
sample=../Samples/green/ord/twang_a3_p_rr1.flac
lokey=45
hikey=45
hivel=42
seq_length=4
seq_position=3
pitch_keycenter=45
bend_up=155
bend_down=-155
lfo02_pitch_oncc113=69
amp_velcurve_42=1

<region>
sample=../Samples/green/ord/twang_a3_p_rr2.flac
lokey=45
hikey=45
hivel=42
seq_length=4
seq_position=2
pitch_keycenter=45
bend_up=155
bend_down=-155
lfo02_pitch_oncc113=69
amp_velcurve_42=1

<region>
sample=../Samples/green/ord/twang_a3_p_rr1.flac
lokey=45
hikey=45
hivel=42
seq_length=4
pitch_keycenter=45
bend_up=155
bend_down=-155
lfo02_pitch_oncc113=69
amp_velcurve_42=1

<region>
sample=../Samples/green/ord/twang_a3_mf_rr4.flac
lokey=45
hikey=45
lovel=43
hivel=84
seq_length=4
seq_position=4
pitch_keycenter=45
bend_up=155
bend_down=-155
lfo02_pitch_oncc113=69
amp_velcurve_84=1

<region>
sample=../Samples/green/ord/twang_a3_mf_rr3.flac
lokey=45
hikey=45
lovel=43
hivel=84
seq_length=4
seq_position=3
pitch_keycenter=45
bend_up=155
bend_down=-155
lfo02_pitch_oncc113=69
amp_velcurve_84=1

<region>
sample=../Samples/green/ord/twang_a3_mf_rr2.flac
lokey=45
hikey=45
lovel=43
hivel=84
seq_length=4
seq_position=2
pitch_keycenter=45
bend_up=155
bend_down=-155
lfo02_pitch_oncc113=69
amp_velcurve_84=1

<region>
sample=../Samples/green/ord/twang_a3_mf_rr1.flac
lokey=45
hikey=45
lovel=43
hivel=84
seq_length=4
pitch_keycenter=45
bend_up=155
bend_down=-155
lfo02_pitch_oncc113=69
amp_velcurve_84=1

<region>
sample=../Samples/green/ord/twang_a3_f_rr4.flac
lokey=45
hikey=45
lovel=85
seq_length=4
seq_position=4
pitch_keycenter=45
bend_up=155
bend_down=-155
lfo02_pitch_oncc113=69

<region>
sample=../Samples/green/ord/twang_a3_f_rr3.flac
lokey=45
hikey=45
lovel=85
seq_length=4
seq_position=3
pitch_keycenter=45
bend_up=155
bend_down=-155
lfo02_pitch_oncc113=69

<region>
sample=../Samples/green/ord/twang_a3_f_rr2.flac
lokey=45
hikey=45
lovel=85
seq_length=4
seq_position=2
pitch_keycenter=45
bend_up=155
bend_down=-155
lfo02_pitch_oncc113=69

<region>
sample=../Samples/green/ord/twang_a3_f_rr1.flac
lokey=45
hikey=45
lovel=85
seq_length=4
pitch_keycenter=45
bend_up=155
bend_down=-155
lfo02_pitch_oncc113=69

<region>
sample=../Samples/green/ord/twang_bb3_p_rr2.flac
lokey=46
hikey=46
hivel=42
seq_length=4
seq_position=4
pitch_keycenter=46
bend_up=155
bend_down=-155
lfo02_pitch_oncc113=69
amp_velcurve_42=1

<region>
sample=../Samples/green/ord/twang_bb3_p_rr1.flac
lokey=46
hikey=46
hivel=42
seq_length=4
seq_position=3
pitch_keycenter=46
bend_up=155
bend_down=-155
lfo02_pitch_oncc113=69
amp_velcurve_42=1

<region>
sample=../Samples/green/ord/twang_bb3_p_rr2.flac
lokey=46
hikey=46
hivel=42
seq_length=4
seq_position=2
pitch_keycenter=46
bend_up=155
bend_down=-155
lfo02_pitch_oncc113=69
amp_velcurve_42=1

<region>
sample=../Samples/green/ord/twang_bb3_p_rr1.flac
lokey=46
hikey=46
hivel=42
seq_length=4
pitch_keycenter=46
bend_up=155
bend_down=-155
lfo02_pitch_oncc113=69
amp_velcurve_42=1

<region>
sample=../Samples/green/ord/twang_bb3_mf_rr4.flac
lokey=46
hikey=46
lovel=43
hivel=84
seq_length=4
seq_position=4
pitch_keycenter=46
bend_up=155
bend_down=-155
lfo02_pitch_oncc113=69
amp_velcurve_84=1

<region>
sample=../Samples/green/ord/twang_bb3_mf_rr3.flac
lokey=46
hikey=46
lovel=43
hivel=84
seq_length=4
seq_position=3
pitch_keycenter=46
bend_up=155
bend_down=-155
lfo02_pitch_oncc113=69
amp_velcurve_84=1

<region>
sample=../Samples/green/ord/twang_bb3_mf_rr2.flac
lokey=46
hikey=46
lovel=43
hivel=84
seq_length=4
seq_position=2
pitch_keycenter=46
bend_up=155
bend_down=-155
lfo02_pitch_oncc113=69
amp_velcurve_84=1

<region>
sample=../Samples/green/ord/twang_bb3_mf_rr1.flac
lokey=46
hikey=46
lovel=43
hivel=84
seq_length=4
pitch_keycenter=46
bend_up=155
bend_down=-155
lfo02_pitch_oncc113=69
amp_velcurve_84=1

<region>
sample=../Samples/green/ord/twang_bb3_f_rr4.flac
lokey=46
hikey=46
lovel=85
seq_length=4
seq_position=4
pitch_keycenter=46
bend_up=155
bend_down=-155
lfo02_pitch_oncc113=69

<region>
sample=../Samples/green/ord/twang_bb3_f_rr3.flac
lokey=46
hikey=46
lovel=85
seq_length=4
seq_position=3
pitch_keycenter=46
bend_up=155
bend_down=-155
lfo02_pitch_oncc113=69

<region>
sample=../Samples/green/ord/twang_bb3_f_rr2.flac
lokey=46
hikey=46
lovel=85
seq_length=4
seq_position=2
pitch_keycenter=46
bend_up=155
bend_down=-155
lfo02_pitch_oncc113=69

<region>
sample=../Samples/green/ord/twang_bb3_f_rr1.flac
lokey=46
hikey=46
lovel=85
seq_length=4
pitch_keycenter=46
bend_up=155
bend_down=-155
lfo02_pitch_oncc113=69

<region>
sample=../Samples/green/ord/twang_b3_p_rr2.flac
lokey=47
hikey=47
hivel=42
seq_length=4
seq_position=4
pitch_keycenter=47
bend_up=155
bend_down=-155
lfo02_pitch_oncc113=69
amp_velcurve_42=1

<region>
sample=../Samples/green/ord/twang_b3_p_rr1.flac
lokey=47
hikey=47
hivel=42
seq_length=4
seq_position=3
pitch_keycenter=47
bend_up=155
bend_down=-155
lfo02_pitch_oncc113=69
amp_velcurve_42=1

<region>
sample=../Samples/green/ord/twang_b3_p_rr2.flac
lokey=47
hikey=47
hivel=42
seq_length=4
seq_position=2
pitch_keycenter=47
bend_up=155
bend_down=-155
lfo02_pitch_oncc113=69
amp_velcurve_42=1

<region>
sample=../Samples/green/ord/twang_b3_p_rr1.flac
lokey=47
hikey=47
hivel=42
seq_length=4
pitch_keycenter=47
bend_up=155
bend_down=-155
lfo02_pitch_oncc113=69
amp_velcurve_42=1

<region>
sample=../Samples/green/ord/twang_b3_mf_rr4.flac
lokey=47
hikey=47
lovel=43
hivel=84
seq_length=4
seq_position=4
pitch_keycenter=47
bend_up=155
bend_down=-155
lfo02_pitch_oncc113=69
amp_velcurve_84=1

<region>
sample=../Samples/green/ord/twang_b3_mf_rr3.flac
lokey=47
hikey=47
lovel=43
hivel=84
seq_length=4
seq_position=3
pitch_keycenter=47
bend_up=155
bend_down=-155
lfo02_pitch_oncc113=69
amp_velcurve_84=1

<region>
sample=../Samples/green/ord/twang_b3_mf_rr2.flac
lokey=47
hikey=47
lovel=43
hivel=84
seq_length=4
seq_position=2
pitch_keycenter=47
bend_up=155
bend_down=-155
lfo02_pitch_oncc113=69
amp_velcurve_84=1

<region>
sample=../Samples/green/ord/twang_b3_mf_rr1.flac
lokey=47
hikey=47
lovel=43
hivel=84
seq_length=4
pitch_keycenter=47
bend_up=155
bend_down=-155
lfo02_pitch_oncc113=69
amp_velcurve_84=1

<region>
sample=../Samples/green/ord/twang_b3_f_rr4.flac
lokey=47
hikey=47
lovel=85
seq_length=4
seq_position=4
pitch_keycenter=47
bend_up=155
bend_down=-155
lfo02_pitch_oncc113=69

<region>
sample=../Samples/green/ord/twang_b3_f_rr3.flac
lokey=47
hikey=47
lovel=85
seq_length=4
seq_position=3
pitch_keycenter=47
bend_up=155
bend_down=-155
lfo02_pitch_oncc113=69

<region>
sample=../Samples/green/ord/twang_b3_f_rr2.flac
lokey=47
hikey=47
lovel=85
seq_length=4
seq_position=2
pitch_keycenter=47
bend_up=155
bend_down=-155
lfo02_pitch_oncc113=69

<region>
sample=../Samples/green/ord/twang_b3_f_rr1.flac
lokey=47
hikey=47
lovel=85
seq_length=4
pitch_keycenter=47
bend_up=155
bend_down=-155
lfo02_pitch_oncc113=69

<region>
sample=../Samples/green/ord/twang_c4_p_rr2.flac
lokey=48
hikey=48
hivel=42
seq_length=4
seq_position=4
pitch_keycenter=48
bend_up=155
bend_down=-155
lfo02_pitch_oncc113=69
amp_velcurve_42=1

<region>
sample=../Samples/green/ord/twang_c4_p_rr1.flac
lokey=48
hikey=48
hivel=42
seq_length=4
seq_position=3
pitch_keycenter=48
bend_up=155
bend_down=-155
lfo02_pitch_oncc113=69
amp_velcurve_42=1

<region>
sample=../Samples/green/ord/twang_c4_p_rr2.flac
lokey=48
hikey=48
hivel=42
seq_length=4
seq_position=2
pitch_keycenter=48
bend_up=155
bend_down=-155
lfo02_pitch_oncc113=69
amp_velcurve_42=1

<region>
sample=../Samples/green/ord/twang_c4_p_rr1.flac
lokey=48
hikey=48
hivel=42
seq_length=4
pitch_keycenter=48
bend_up=155
bend_down=-155
lfo02_pitch_oncc113=69
amp_velcurve_42=1

<region>
sample=../Samples/green/ord/twang_c4_mf_rr4.flac
lokey=48
hikey=48
lovel=43
hivel=84
seq_length=4
seq_position=4
pitch_keycenter=48
bend_up=155
bend_down=-155
lfo02_pitch_oncc113=69
amp_velcurve_84=1

<region>
sample=../Samples/green/ord/twang_c4_mf_rr3.flac
lokey=48
hikey=48
lovel=43
hivel=84
seq_length=4
seq_position=3
pitch_keycenter=48
bend_up=155
bend_down=-155
lfo02_pitch_oncc113=69
amp_velcurve_84=1

<region>
sample=../Samples/green/ord/twang_c4_mf_rr2.flac
lokey=48
hikey=48
lovel=43
hivel=84
seq_length=4
seq_position=2
pitch_keycenter=48
bend_up=155
bend_down=-155
lfo02_pitch_oncc113=69
amp_velcurve_84=1

<region>
sample=../Samples/green/ord/twang_c4_mf_rr1.flac
lokey=48
hikey=48
lovel=43
hivel=84
seq_length=4
pitch_keycenter=48
bend_up=155
bend_down=-155
lfo02_pitch_oncc113=69
amp_velcurve_84=1

<region>
sample=../Samples/green/ord/twang_c4_f_rr4.flac
lokey=48
hikey=48
lovel=85
seq_length=4
seq_position=4
pitch_keycenter=48
bend_up=155
bend_down=-155
lfo02_pitch_oncc113=69

<region>
sample=../Samples/green/ord/twang_c4_f_rr3.flac
lokey=48
hikey=48
lovel=85
seq_length=4
seq_position=3
pitch_keycenter=48
bend_up=155
bend_down=-155
lfo02_pitch_oncc113=69

<region>
sample=../Samples/green/ord/twang_c4_f_rr2.flac
lokey=48
hikey=48
lovel=85
seq_length=4
seq_position=2
pitch_keycenter=48
bend_up=155
bend_down=-155
lfo02_pitch_oncc113=69

<region>
sample=../Samples/green/ord/twang_c4_f_rr1.flac
lokey=48
hikey=48
lovel=85
seq_length=4
pitch_keycenter=48
bend_up=155
bend_down=-155
lfo02_pitch_oncc113=69

<region>
sample=../Samples/green/ord/twang_db4_p_rr2.flac
lokey=49
hikey=49
hivel=42
seq_length=4
seq_position=4
pitch_keycenter=49
bend_up=155
bend_down=-155
lfo02_pitch_oncc113=69
amp_velcurve_42=1

<region>
sample=../Samples/green/ord/twang_db4_p_rr1.flac
lokey=49
hikey=49
hivel=42
seq_length=4
seq_position=3
pitch_keycenter=49
bend_up=155
bend_down=-155
lfo02_pitch_oncc113=69
amp_velcurve_42=1

<region>
sample=../Samples/green/ord/twang_db4_p_rr2.flac
lokey=49
hikey=49
hivel=42
seq_length=4
seq_position=2
pitch_keycenter=49
bend_up=155
bend_down=-155
lfo02_pitch_oncc113=69
amp_velcurve_42=1

<region>
sample=../Samples/green/ord/twang_db4_p_rr1.flac
lokey=49
hikey=49
hivel=42
seq_length=4
pitch_keycenter=49
bend_up=155
bend_down=-155
lfo02_pitch_oncc113=69
amp_velcurve_42=1

<region>
sample=../Samples/green/ord/twang_db4_mf_rr4.flac
lokey=49
hikey=49
lovel=43
hivel=84
seq_length=4
seq_position=4
pitch_keycenter=49
bend_up=155
bend_down=-155
lfo02_pitch_oncc113=69
amp_velcurve_84=1

<region>
sample=../Samples/green/ord/twang_db4_mf_rr3.flac
lokey=49
hikey=49
lovel=43
hivel=84
seq_length=4
seq_position=3
pitch_keycenter=49
bend_up=155
bend_down=-155
lfo02_pitch_oncc113=69
amp_velcurve_84=1

<region>
sample=../Samples/green/ord/twang_db4_mf_rr2.flac
lokey=49
hikey=49
lovel=43
hivel=84
seq_length=4
seq_position=2
pitch_keycenter=49
bend_up=155
bend_down=-155
lfo02_pitch_oncc113=69
amp_velcurve_84=1

<region>
sample=../Samples/green/ord/twang_db4_mf_rr1.flac
lokey=49
hikey=49
lovel=43
hivel=84
seq_length=4
pitch_keycenter=49
bend_up=155
bend_down=-155
lfo02_pitch_oncc113=69
amp_velcurve_84=1

<region>
sample=../Samples/green/ord/twang_db4_f_rr4.flac
lokey=49
hikey=49
lovel=85
seq_length=4
seq_position=4
pitch_keycenter=49
bend_up=155
bend_down=-155
lfo02_pitch_oncc113=69

<region>
sample=../Samples/green/ord/twang_db4_f_rr3.flac
lokey=49
hikey=49
lovel=85
seq_length=4
seq_position=3
pitch_keycenter=49
bend_up=155
bend_down=-155
lfo02_pitch_oncc113=69

<region>
sample=../Samples/green/ord/twang_db4_f_rr2.flac
lokey=49
hikey=49
lovel=85
seq_length=4
seq_position=2
pitch_keycenter=49
bend_up=155
bend_down=-155
lfo02_pitch_oncc113=69

<region>
sample=../Samples/green/ord/twang_db4_f_rr1.flac
lokey=49
hikey=49
lovel=85
seq_length=4
pitch_keycenter=49
bend_up=155
bend_down=-155
lfo02_pitch_oncc113=69

<region>
sample=../Samples/green/ord/twang_d4_p_rr2.flac
lokey=50
hikey=50
hivel=42
seq_length=4
seq_position=4
pitch_keycenter=50
bend_up=183
bend_down=-183
lfo02_pitch_oncc113=81
amp_velcurve_42=1

<region>
sample=../Samples/green/ord/twang_d4_p_rr1.flac
lokey=50
hikey=50
hivel=42
seq_length=4
seq_position=3
pitch_keycenter=50
bend_up=183
bend_down=-183
lfo02_pitch_oncc113=81
amp_velcurve_42=1

<region>
sample=../Samples/green/ord/twang_d4_p_rr2.flac
lokey=50
hikey=50
hivel=42
seq_length=4
seq_position=2
pitch_keycenter=50
bend_up=183
bend_down=-183
lfo02_pitch_oncc113=81
amp_velcurve_42=1

<region>
sample=../Samples/green/ord/twang_d4_p_rr1.flac
lokey=50
hikey=50
hivel=42
seq_length=4
pitch_keycenter=50
bend_up=183
bend_down=-183
lfo02_pitch_oncc113=81
amp_velcurve_42=1

<region>
sample=../Samples/green/ord/twang_d4_mf_rr4.flac
lokey=50
hikey=50
lovel=43
hivel=84
seq_length=4
seq_position=4
pitch_keycenter=50
bend_up=183
bend_down=-183
lfo02_pitch_oncc113=81
amp_velcurve_84=1

<region>
sample=../Samples/green/ord/twang_d4_mf_rr3.flac
lokey=50
hikey=50
lovel=43
hivel=84
seq_length=4
seq_position=3
pitch_keycenter=50
bend_up=183
bend_down=-183
lfo02_pitch_oncc113=81
amp_velcurve_84=1

<region>
sample=../Samples/green/ord/twang_d4_mf_rr2.flac
lokey=50
hikey=50
lovel=43
hivel=84
seq_length=4
seq_position=2
pitch_keycenter=50
bend_up=183
bend_down=-183
lfo02_pitch_oncc113=81
amp_velcurve_84=1

<region>
sample=../Samples/green/ord/twang_d4_mf_rr1.flac
lokey=50
hikey=50
lovel=43
hivel=84
seq_length=4
pitch_keycenter=50
bend_up=183
bend_down=-183
lfo02_pitch_oncc113=81
amp_velcurve_84=1

<region>
sample=../Samples/green/ord/twang_d4_f_rr4.flac
lokey=50
hikey=50
lovel=85
seq_length=4
seq_position=4
pitch_keycenter=50
bend_up=183
bend_down=-183
lfo02_pitch_oncc113=81

<region>
sample=../Samples/green/ord/twang_d4_f_rr3.flac
lokey=50
hikey=50
lovel=85
seq_length=4
seq_position=3
pitch_keycenter=50
bend_up=183
bend_down=-183
lfo02_pitch_oncc113=81

<region>
sample=../Samples/green/ord/twang_d4_f_rr2.flac
lokey=50
hikey=50
lovel=85
seq_length=4
seq_position=2
pitch_keycenter=50
bend_up=183
bend_down=-183
lfo02_pitch_oncc113=81

<region>
sample=../Samples/green/ord/twang_d4_f_rr1.flac
lokey=50
hikey=50
lovel=85
seq_length=4
pitch_keycenter=50
bend_up=183
bend_down=-183
lfo02_pitch_oncc113=81

<region>
sample=../Samples/green/ord/twang_eb4_p_rr2.flac
lokey=51
hikey=51
hivel=42
seq_length=4
seq_position=4
pitch_keycenter=51
bend_up=183
bend_down=-183
lfo02_pitch_oncc113=81
amp_velcurve_42=1

<region>
sample=../Samples/green/ord/twang_eb4_p_rr1.flac
lokey=51
hikey=51
hivel=42
seq_length=4
seq_position=3
pitch_keycenter=51
bend_up=183
bend_down=-183
lfo02_pitch_oncc113=81
amp_velcurve_42=1

<region>
sample=../Samples/green/ord/twang_eb4_p_rr2.flac
lokey=51
hikey=51
hivel=42
seq_length=4
seq_position=2
pitch_keycenter=51
bend_up=183
bend_down=-183
lfo02_pitch_oncc113=81
amp_velcurve_42=1

<region>
sample=../Samples/green/ord/twang_eb4_p_rr1.flac
lokey=51
hikey=51
hivel=42
seq_length=4
pitch_keycenter=51
bend_up=183
bend_down=-183
lfo02_pitch_oncc113=81
amp_velcurve_42=1

<region>
sample=../Samples/green/ord/twang_eb4_mf_rr4.flac
lokey=51
hikey=51
lovel=43
hivel=84
seq_length=4
seq_position=4
pitch_keycenter=51
bend_up=183
bend_down=-183
lfo02_pitch_oncc113=81
amp_velcurve_84=1

<region>
sample=../Samples/green/ord/twang_eb4_mf_rr3.flac
lokey=51
hikey=51
lovel=43
hivel=84
seq_length=4
seq_position=3
pitch_keycenter=51
bend_up=183
bend_down=-183
lfo02_pitch_oncc113=81
amp_velcurve_84=1

<region>
sample=../Samples/green/ord/twang_eb4_mf_rr2.flac
lokey=51
hikey=51
lovel=43
hivel=84
seq_length=4
seq_position=2
pitch_keycenter=51
bend_up=183
bend_down=-183
lfo02_pitch_oncc113=81
amp_velcurve_84=1

<region>
sample=../Samples/green/ord/twang_eb4_mf_rr1.flac
lokey=51
hikey=51
lovel=43
hivel=84
seq_length=4
pitch_keycenter=51
bend_up=183
bend_down=-183
lfo02_pitch_oncc113=81
amp_velcurve_84=1

<region>
sample=../Samples/green/ord/twang_eb4_f_rr4.flac
lokey=51
hikey=51
lovel=85
seq_length=4
seq_position=4
pitch_keycenter=51
bend_up=183
bend_down=-183
lfo02_pitch_oncc113=81

<region>
sample=../Samples/green/ord/twang_eb4_f_rr3.flac
lokey=51
hikey=51
lovel=85
seq_length=4
seq_position=3
pitch_keycenter=51
bend_up=183
bend_down=-183
lfo02_pitch_oncc113=81

<region>
sample=../Samples/green/ord/twang_eb4_f_rr2.flac
lokey=51
hikey=51
lovel=85
seq_length=4
seq_position=2
pitch_keycenter=51
bend_up=183
bend_down=-183
lfo02_pitch_oncc113=81

<region>
sample=../Samples/green/ord/twang_eb4_f_rr1.flac
lokey=51
hikey=51
lovel=85
seq_length=4
pitch_keycenter=51
bend_up=183
bend_down=-183
lfo02_pitch_oncc113=81

<region>
sample=../Samples/green/ord/twang_e4_p_rr2.flac
lokey=52
hikey=52
hivel=42
seq_length=4
seq_position=4
pitch_keycenter=52
bend_up=183
bend_down=-183
lfo02_pitch_oncc113=81
amp_velcurve_42=1

<region>
sample=../Samples/green/ord/twang_e4_p_rr1.flac
lokey=52
hikey=52
hivel=42
seq_length=4
seq_position=3
pitch_keycenter=52
bend_up=183
bend_down=-183
lfo02_pitch_oncc113=81
amp_velcurve_42=1

<region>
sample=../Samples/green/ord/twang_e4_p_rr2.flac
lokey=52
hikey=52
hivel=42
seq_length=4
seq_position=2
pitch_keycenter=52
bend_up=183
bend_down=-183
lfo02_pitch_oncc113=81
amp_velcurve_42=1

<region>
sample=../Samples/green/ord/twang_e4_p_rr1.flac
lokey=52
hikey=52
hivel=42
seq_length=4
pitch_keycenter=52
bend_up=183
bend_down=-183
lfo02_pitch_oncc113=81
amp_velcurve_42=1

<region>
sample=../Samples/green/ord/twang_e4_mf_rr4.flac
lokey=52
hikey=52
lovel=43
hivel=84
seq_length=4
seq_position=4
pitch_keycenter=52
bend_up=183
bend_down=-183
lfo02_pitch_oncc113=81
amp_velcurve_84=1

<region>
sample=../Samples/green/ord/twang_e4_mf_rr3.flac
lokey=52
hikey=52
lovel=43
hivel=84
seq_length=4
seq_position=3
pitch_keycenter=52
bend_up=183
bend_down=-183
lfo02_pitch_oncc113=81
amp_velcurve_84=1

<region>
sample=../Samples/green/ord/twang_e4_mf_rr2.flac
lokey=52
hikey=52
lovel=43
hivel=84
seq_length=4
seq_position=2
pitch_keycenter=52
bend_up=183
bend_down=-183
lfo02_pitch_oncc113=81
amp_velcurve_84=1

<region>
sample=../Samples/green/ord/twang_e4_mf_rr1.flac
lokey=52
hikey=52
lovel=43
hivel=84
seq_length=4
pitch_keycenter=52
bend_up=183
bend_down=-183
lfo02_pitch_oncc113=81
amp_velcurve_84=1

<region>
sample=../Samples/green/ord/twang_e4_f_rr4.flac
lokey=52
hikey=52
lovel=85
seq_length=4
seq_position=4
pitch_keycenter=52
bend_up=183
bend_down=-183
lfo02_pitch_oncc113=81

<region>
sample=../Samples/green/ord/twang_e4_f_rr3.flac
lokey=52
hikey=52
lovel=85
seq_length=4
seq_position=3
pitch_keycenter=52
bend_up=183
bend_down=-183
lfo02_pitch_oncc113=81

<region>
sample=../Samples/green/ord/twang_e4_f_rr2.flac
lokey=52
hikey=52
lovel=85
seq_length=4
seq_position=2
pitch_keycenter=52
bend_up=183
bend_down=-183
lfo02_pitch_oncc113=81

<region>
sample=../Samples/green/ord/twang_e4_f_rr1.flac
lokey=52
hikey=52
lovel=85
seq_length=4
pitch_keycenter=52
bend_up=183
bend_down=-183
lfo02_pitch_oncc113=81

<region>
sample=../Samples/green/ord/twang_f4_p_rr2.flac
lokey=53
hikey=53
hivel=42
seq_length=4
seq_position=4
pitch_keycenter=53
bend_up=183
bend_down=-183
lfo02_pitch_oncc113=81
amp_velcurve_42=1

<region>
sample=../Samples/green/ord/twang_f4_p_rr1.flac
lokey=53
hikey=53
hivel=42
seq_length=4
seq_position=3
pitch_keycenter=53
bend_up=183
bend_down=-183
lfo02_pitch_oncc113=81
amp_velcurve_42=1

<region>
sample=../Samples/green/ord/twang_f4_p_rr2.flac
lokey=53
hikey=53
hivel=42
seq_length=4
seq_position=2
pitch_keycenter=53
bend_up=183
bend_down=-183
lfo02_pitch_oncc113=81
amp_velcurve_42=1

<region>
sample=../Samples/green/ord/twang_f4_p_rr1.flac
lokey=53
hikey=53
hivel=42
seq_length=4
pitch_keycenter=53
bend_up=183
bend_down=-183
lfo02_pitch_oncc113=81
amp_velcurve_42=1

<region>
sample=../Samples/green/ord/twang_f4_mf_rr4.flac
lokey=53
hikey=53
lovel=43
hivel=84
seq_length=4
seq_position=4
pitch_keycenter=53
bend_up=183
bend_down=-183
lfo02_pitch_oncc113=81
amp_velcurve_84=1

<region>
sample=../Samples/green/ord/twang_f4_mf_rr3.flac
lokey=53
hikey=53
lovel=43
hivel=84
seq_length=4
seq_position=3
pitch_keycenter=53
bend_up=183
bend_down=-183
lfo02_pitch_oncc113=81
amp_velcurve_84=1

<region>
sample=../Samples/green/ord/twang_f4_mf_rr2.flac
lokey=53
hikey=53
lovel=43
hivel=84
seq_length=4
seq_position=2
pitch_keycenter=53
bend_up=183
bend_down=-183
lfo02_pitch_oncc113=81
amp_velcurve_84=1

<region>
sample=../Samples/green/ord/twang_f4_mf_rr1.flac
lokey=53
hikey=53
lovel=43
hivel=84
seq_length=4
pitch_keycenter=53
bend_up=183
bend_down=-183
lfo02_pitch_oncc113=81
amp_velcurve_84=1

<region>
sample=../Samples/green/ord/twang_f4_f_rr4.flac
lokey=53
hikey=53
lovel=85
seq_length=4
seq_position=4
pitch_keycenter=53
bend_up=183
bend_down=-183
lfo02_pitch_oncc113=81

<region>
sample=../Samples/green/ord/twang_f4_f_rr3.flac
lokey=53
hikey=53
lovel=85
seq_length=4
seq_position=3
pitch_keycenter=53
bend_up=183
bend_down=-183
lfo02_pitch_oncc113=81

<region>
sample=../Samples/green/ord/twang_f4_f_rr2.flac
lokey=53
hikey=53
lovel=85
seq_length=4
seq_position=2
pitch_keycenter=53
bend_up=183
bend_down=-183
lfo02_pitch_oncc113=81

<region>
sample=../Samples/green/ord/twang_f4_f_rr1.flac
lokey=53
hikey=53
lovel=85
seq_length=4
pitch_keycenter=53
bend_up=183
bend_down=-183
lfo02_pitch_oncc113=81

<region>
sample=../Samples/green/ord/twang_gb4_p_rr2.flac
lokey=54
hikey=54
hivel=42
seq_length=4
seq_position=4
pitch_keycenter=54
bend_up=183
bend_down=-183
lfo02_pitch_oncc113=81
amp_velcurve_42=1

<region>
sample=../Samples/green/ord/twang_gb4_p_rr1.flac
lokey=54
hikey=54
hivel=42
seq_length=4
seq_position=3
pitch_keycenter=54
bend_up=183
bend_down=-183
lfo02_pitch_oncc113=81
amp_velcurve_42=1

<region>
sample=../Samples/green/ord/twang_gb4_p_rr2.flac
lokey=54
hikey=54
hivel=42
seq_length=4
seq_position=2
pitch_keycenter=54
bend_up=183
bend_down=-183
lfo02_pitch_oncc113=81
amp_velcurve_42=1

<region>
sample=../Samples/green/ord/twang_gb4_p_rr1.flac
lokey=54
hikey=54
hivel=42
seq_length=4
pitch_keycenter=54
bend_up=183
bend_down=-183
lfo02_pitch_oncc113=81
amp_velcurve_42=1

<region>
sample=../Samples/green/ord/twang_gb4_mf_rr4.flac
lokey=54
hikey=54
lovel=43
hivel=84
seq_length=4
seq_position=4
pitch_keycenter=54
bend_up=183
bend_down=-183
lfo02_pitch_oncc113=81
amp_velcurve_84=1

<region>
sample=../Samples/green/ord/twang_gb4_mf_rr3.flac
lokey=54
hikey=54
lovel=43
hivel=84
seq_length=4
seq_position=3
pitch_keycenter=54
bend_up=183
bend_down=-183
lfo02_pitch_oncc113=81
amp_velcurve_84=1

<region>
sample=../Samples/green/ord/twang_gb4_mf_rr2.flac
lokey=54
hikey=54
lovel=43
hivel=84
seq_length=4
seq_position=2
pitch_keycenter=54
bend_up=183
bend_down=-183
lfo02_pitch_oncc113=81
amp_velcurve_84=1

<region>
sample=../Samples/green/ord/twang_gb4_mf_rr1.flac
lokey=54
hikey=54
lovel=43
hivel=84
seq_length=4
pitch_keycenter=54
bend_up=183
bend_down=-183
lfo02_pitch_oncc113=81
amp_velcurve_84=1

<region>
sample=../Samples/green/ord/twang_gb4_f_rr4.flac
lokey=54
hikey=54
lovel=85
seq_length=4
seq_position=4
pitch_keycenter=54
bend_up=183
bend_down=-183
lfo02_pitch_oncc113=81

<region>
sample=../Samples/green/ord/twang_gb4_f_rr3.flac
lokey=54
hikey=54
lovel=85
seq_length=4
seq_position=3
pitch_keycenter=54
bend_up=183
bend_down=-183
lfo02_pitch_oncc113=81

<region>
sample=../Samples/green/ord/twang_gb4_f_rr2.flac
lokey=54
hikey=54
lovel=85
seq_length=4
seq_position=2
pitch_keycenter=54
bend_up=183
bend_down=-183
lfo02_pitch_oncc113=81

<region>
sample=../Samples/green/ord/twang_gb4_f_rr1.flac
lokey=54
hikey=54
lovel=85
seq_length=4
pitch_keycenter=54
bend_up=183
bend_down=-183
lfo02_pitch_oncc113=81

<region>
sample=../Samples/green/ord/twang_g4_p_rr2.flac
lokey=55
hikey=55
hivel=42
seq_length=4
seq_position=4
pitch_keycenter=55
bend_up=168
bend_down=-168
lfo02_pitch_oncc113=75
amp_velcurve_42=1

<region>
sample=../Samples/green/ord/twang_g4_p_rr1.flac
lokey=55
hikey=55
hivel=42
seq_length=4
seq_position=3
pitch_keycenter=55
bend_up=168
bend_down=-168
lfo02_pitch_oncc113=75
amp_velcurve_42=1

<region>
sample=../Samples/green/ord/twang_g4_p_rr2.flac
lokey=55
hikey=55
hivel=42
seq_length=4
seq_position=2
pitch_keycenter=55
bend_up=168
bend_down=-168
lfo02_pitch_oncc113=75
amp_velcurve_42=1

<region>
sample=../Samples/green/ord/twang_g4_p_rr1.flac
lokey=55
hikey=55
hivel=42
seq_length=4
pitch_keycenter=55
bend_up=168
bend_down=-168
lfo02_pitch_oncc113=75
amp_velcurve_42=1

<region>
sample=../Samples/green/ord/twang_g4_mf_rr4.flac
lokey=55
hikey=55
lovel=43
hivel=84
seq_length=4
seq_position=4
pitch_keycenter=55
bend_up=168
bend_down=-168
lfo02_pitch_oncc113=75
amp_velcurve_84=1

<region>
sample=../Samples/green/ord/twang_g4_mf_rr3.flac
lokey=55
hikey=55
lovel=43
hivel=84
seq_length=4
seq_position=3
pitch_keycenter=55
bend_up=168
bend_down=-168
lfo02_pitch_oncc113=75
amp_velcurve_84=1

<region>
sample=../Samples/green/ord/twang_g4_mf_rr2.flac
lokey=55
hikey=55
lovel=43
hivel=84
seq_length=4
seq_position=2
pitch_keycenter=55
bend_up=168
bend_down=-168
lfo02_pitch_oncc113=75
amp_velcurve_84=1

<region>
sample=../Samples/green/ord/twang_g4_mf_rr1.flac
lokey=55
hikey=55
lovel=43
hivel=84
seq_length=4
pitch_keycenter=55
bend_up=168
bend_down=-168
lfo02_pitch_oncc113=75
amp_velcurve_84=1

<region>
sample=../Samples/green/ord/twang_g4_f_rr4.flac
lokey=55
hikey=55
lovel=85
seq_length=4
seq_position=4
pitch_keycenter=55
bend_up=168
bend_down=-168
lfo02_pitch_oncc113=75

<region>
sample=../Samples/green/ord/twang_g4_f_rr3.flac
lokey=55
hikey=55
lovel=85
seq_length=4
seq_position=3
pitch_keycenter=55
bend_up=168
bend_down=-168
lfo02_pitch_oncc113=75

<region>
sample=../Samples/green/ord/twang_g4_f_rr2.flac
lokey=55
hikey=55
lovel=85
seq_length=4
seq_position=2
pitch_keycenter=55
bend_up=168
bend_down=-168
lfo02_pitch_oncc113=75

<region>
sample=../Samples/green/ord/twang_g4_f_rr1.flac
lokey=55
hikey=55
lovel=85
seq_length=4
pitch_keycenter=55
bend_up=168
bend_down=-168
lfo02_pitch_oncc113=75

<region>
sample=../Samples/green/ord/twang_ab4_p_rr2.flac
lokey=56
hikey=56
hivel=42
seq_length=4
seq_position=4
pitch_keycenter=56
bend_up=168
bend_down=-168
lfo02_pitch_oncc113=75
amp_velcurve_42=1

<region>
sample=../Samples/green/ord/twang_ab4_p_rr1.flac
lokey=56
hikey=56
hivel=42
seq_length=4
seq_position=3
pitch_keycenter=56
bend_up=168
bend_down=-168
lfo02_pitch_oncc113=75
amp_velcurve_42=1

<region>
sample=../Samples/green/ord/twang_ab4_p_rr2.flac
lokey=56
hikey=56
hivel=42
seq_length=4
seq_position=2
pitch_keycenter=56
bend_up=168
bend_down=-168
lfo02_pitch_oncc113=75
amp_velcurve_42=1

<region>
sample=../Samples/green/ord/twang_ab4_p_rr1.flac
lokey=56
hikey=56
hivel=42
seq_length=4
pitch_keycenter=56
bend_up=168
bend_down=-168
lfo02_pitch_oncc113=75
amp_velcurve_42=1

<region>
sample=../Samples/green/ord/twang_ab4_mf_rr4.flac
lokey=56
hikey=56
lovel=43
hivel=84
seq_length=4
seq_position=4
pitch_keycenter=56
bend_up=168
bend_down=-168
lfo02_pitch_oncc113=75
amp_velcurve_84=1

<region>
sample=../Samples/green/ord/twang_ab4_mf_rr3.flac
lokey=56
hikey=56
lovel=43
hivel=84
seq_length=4
seq_position=3
pitch_keycenter=56
bend_up=168
bend_down=-168
lfo02_pitch_oncc113=75
amp_velcurve_84=1

<region>
sample=../Samples/green/ord/twang_ab4_mf_rr2.flac
lokey=56
hikey=56
lovel=43
hivel=84
seq_length=4
seq_position=2
pitch_keycenter=56
bend_up=168
bend_down=-168
lfo02_pitch_oncc113=75
amp_velcurve_84=1

<region>
sample=../Samples/green/ord/twang_ab4_mf_rr1.flac
lokey=56
hikey=56
lovel=43
hivel=84
seq_length=4
pitch_keycenter=56
bend_up=168
bend_down=-168
lfo02_pitch_oncc113=75
amp_velcurve_84=1

<region>
sample=../Samples/green/ord/twang_ab4_f_rr4.flac
lokey=56
hikey=56
lovel=85
seq_length=4
seq_position=4
pitch_keycenter=56
bend_up=168
bend_down=-168
lfo02_pitch_oncc113=75

<region>
sample=../Samples/green/ord/twang_ab4_f_rr3.flac
lokey=56
hikey=56
lovel=85
seq_length=4
seq_position=3
pitch_keycenter=56
bend_up=168
bend_down=-168
lfo02_pitch_oncc113=75

<region>
sample=../Samples/green/ord/twang_ab4_f_rr2.flac
lokey=56
hikey=56
lovel=85
seq_length=4
seq_position=2
pitch_keycenter=56
bend_up=168
bend_down=-168
lfo02_pitch_oncc113=75

<region>
sample=../Samples/green/ord/twang_ab4_f_rr1.flac
lokey=56
hikey=56
lovel=85
seq_length=4
pitch_keycenter=56
bend_up=168
bend_down=-168
lfo02_pitch_oncc113=75

<region>
sample=../Samples/green/ord/twang_a4_p_rr2.flac
lokey=57
hikey=57
hivel=42
seq_length=4
seq_position=4
pitch_keycenter=57
bend_up=168
bend_down=-168
lfo02_pitch_oncc113=75
amp_velcurve_42=1

<region>
sample=../Samples/green/ord/twang_a4_p_rr1.flac
lokey=57
hikey=57
hivel=42
seq_length=4
seq_position=3
pitch_keycenter=57
bend_up=168
bend_down=-168
lfo02_pitch_oncc113=75
amp_velcurve_42=1

<region>
sample=../Samples/green/ord/twang_a4_p_rr2.flac
lokey=57
hikey=57
hivel=42
seq_length=4
seq_position=2
pitch_keycenter=57
bend_up=168
bend_down=-168
lfo02_pitch_oncc113=75
amp_velcurve_42=1

<region>
sample=../Samples/green/ord/twang_a4_p_rr1.flac
lokey=57
hikey=57
hivel=42
seq_length=4
pitch_keycenter=57
bend_up=168
bend_down=-168
lfo02_pitch_oncc113=75
amp_velcurve_42=1

<region>
sample=../Samples/green/ord/twang_a4_mf_rr4.flac
lokey=57
hikey=57
lovel=43
hivel=84
seq_length=4
seq_position=4
pitch_keycenter=57
bend_up=168
bend_down=-168
lfo02_pitch_oncc113=75
amp_velcurve_84=1

<region>
sample=../Samples/green/ord/twang_a4_mf_rr3.flac
lokey=57
hikey=57
lovel=43
hivel=84
seq_length=4
seq_position=3
pitch_keycenter=57
bend_up=168
bend_down=-168
lfo02_pitch_oncc113=75
amp_velcurve_84=1

<region>
sample=../Samples/green/ord/twang_a4_mf_rr2.flac
lokey=57
hikey=57
lovel=43
hivel=84
seq_length=4
seq_position=2
pitch_keycenter=57
bend_up=168
bend_down=-168
lfo02_pitch_oncc113=75
amp_velcurve_84=1

<region>
sample=../Samples/green/ord/twang_a4_mf_rr1.flac
lokey=57
hikey=57
lovel=43
hivel=84
seq_length=4
pitch_keycenter=57
bend_up=168
bend_down=-168
lfo02_pitch_oncc113=75
amp_velcurve_84=1

<region>
sample=../Samples/green/ord/twang_a4_f_rr4.flac
lokey=57
hikey=57
lovel=85
seq_length=4
seq_position=4
pitch_keycenter=57
bend_up=168
bend_down=-168
lfo02_pitch_oncc113=75

<region>
sample=../Samples/green/ord/twang_a4_f_rr3.flac
lokey=57
hikey=57
lovel=85
seq_length=4
seq_position=3
pitch_keycenter=57
bend_up=168
bend_down=-168
lfo02_pitch_oncc113=75

<region>
sample=../Samples/green/ord/twang_a4_f_rr2.flac
lokey=57
hikey=57
lovel=85
seq_length=4
seq_position=2
pitch_keycenter=57
bend_up=168
bend_down=-168
lfo02_pitch_oncc113=75

<region>
sample=../Samples/green/ord/twang_a4_f_rr1.flac
lokey=57
hikey=57
lovel=85
seq_length=4
pitch_keycenter=57
bend_up=168
bend_down=-168
lfo02_pitch_oncc113=75

<region>
sample=../Samples/green/ord/twang_bb4_p_rr2.flac
lokey=58
hikey=58
hivel=42
seq_length=4
seq_position=4
pitch_keycenter=58
bend_up=168
bend_down=-168
lfo02_pitch_oncc113=75
amp_velcurve_42=1

<region>
sample=../Samples/green/ord/twang_bb4_p_rr1.flac
lokey=58
hikey=58
hivel=42
seq_length=4
seq_position=3
pitch_keycenter=58
bend_up=168
bend_down=-168
lfo02_pitch_oncc113=75
amp_velcurve_42=1

<region>
sample=../Samples/green/ord/twang_bb4_p_rr2.flac
lokey=58
hikey=58
hivel=42
seq_length=4
seq_position=2
pitch_keycenter=58
bend_up=168
bend_down=-168
lfo02_pitch_oncc113=75
amp_velcurve_42=1

<region>
sample=../Samples/green/ord/twang_bb4_p_rr1.flac
lokey=58
hikey=58
hivel=42
seq_length=4
pitch_keycenter=58
bend_up=168
bend_down=-168
lfo02_pitch_oncc113=75
amp_velcurve_42=1

<region>
sample=../Samples/green/ord/twang_bb4_mf_rr4.flac
lokey=58
hikey=58
lovel=43
hivel=84
seq_length=4
seq_position=4
pitch_keycenter=58
bend_up=168
bend_down=-168
lfo02_pitch_oncc113=75
amp_velcurve_84=1

<region>
sample=../Samples/green/ord/twang_bb4_mf_rr3.flac
lokey=58
hikey=58
lovel=43
hivel=84
seq_length=4
seq_position=3
pitch_keycenter=58
bend_up=168
bend_down=-168
lfo02_pitch_oncc113=75
amp_velcurve_84=1

<region>
sample=../Samples/green/ord/twang_bb4_mf_rr2.flac
lokey=58
hikey=58
lovel=43
hivel=84
seq_length=4
seq_position=2
pitch_keycenter=58
bend_up=168
bend_down=-168
lfo02_pitch_oncc113=75
amp_velcurve_84=1

<region>
sample=../Samples/green/ord/twang_bb4_mf_rr1.flac
lokey=58
hikey=58
lovel=43
hivel=84
seq_length=4
pitch_keycenter=58
bend_up=168
bend_down=-168
lfo02_pitch_oncc113=75
amp_velcurve_84=1

<region>
sample=../Samples/green/ord/twang_bb4_f_rr4.flac
lokey=58
hikey=58
lovel=85
seq_length=4
seq_position=4
pitch_keycenter=58
bend_up=168
bend_down=-168
lfo02_pitch_oncc113=75

<region>
sample=../Samples/green/ord/twang_bb4_f_rr3.flac
lokey=58
hikey=58
lovel=85
seq_length=4
seq_position=3
pitch_keycenter=58
bend_up=168
bend_down=-168
lfo02_pitch_oncc113=75

<region>
sample=../Samples/green/ord/twang_bb4_f_rr2.flac
lokey=58
hikey=58
lovel=85
seq_length=4
seq_position=2
pitch_keycenter=58
bend_up=168
bend_down=-168
lfo02_pitch_oncc113=75

<region>
sample=../Samples/green/ord/twang_bb4_f_rr1.flac
lokey=58
hikey=58
lovel=85
seq_length=4
pitch_keycenter=58
bend_up=168
bend_down=-168
lfo02_pitch_oncc113=75

<region>
sample=../Samples/green/ord/twang_b4_p_rr2.flac
lokey=59
hikey=59
hivel=42
seq_length=4
seq_position=4
pitch_keycenter=59
bend_up=138
bend_down=-138
lfo02_pitch_oncc113=61
amp_velcurve_42=1

<region>
sample=../Samples/green/ord/twang_b4_p_rr1.flac
lokey=59
hikey=59
hivel=42
seq_length=4
seq_position=3
pitch_keycenter=59
bend_up=138
bend_down=-138
lfo02_pitch_oncc113=61
amp_velcurve_42=1

<region>
sample=../Samples/green/ord/twang_b4_p_rr2.flac
lokey=59
hikey=59
hivel=42
seq_length=4
seq_position=2
pitch_keycenter=59
bend_up=138
bend_down=-138
lfo02_pitch_oncc113=61
amp_velcurve_42=1

<region>
sample=../Samples/green/ord/twang_b4_p_rr1.flac
lokey=59
hikey=59
hivel=42
seq_length=4
pitch_keycenter=59
bend_up=138
bend_down=-138
lfo02_pitch_oncc113=61
amp_velcurve_42=1

<region>
sample=../Samples/green/ord/twang_b4_mf_rr4.flac
lokey=59
hikey=59
lovel=43
hivel=84
seq_length=4
seq_position=4
pitch_keycenter=59
bend_up=138
bend_down=-138
lfo02_pitch_oncc113=61
amp_velcurve_84=1

<region>
sample=../Samples/green/ord/twang_b4_mf_rr3.flac
lokey=59
hikey=59
lovel=43
hivel=84
seq_length=4
seq_position=3
pitch_keycenter=59
bend_up=138
bend_down=-138
lfo02_pitch_oncc113=61
amp_velcurve_84=1

<region>
sample=../Samples/green/ord/twang_b4_mf_rr2.flac
lokey=59
hikey=59
lovel=43
hivel=84
seq_length=4
seq_position=2
pitch_keycenter=59
bend_up=138
bend_down=-138
lfo02_pitch_oncc113=61
amp_velcurve_84=1

<region>
sample=../Samples/green/ord/twang_b4_mf_rr1.flac
lokey=59
hikey=59
lovel=43
hivel=84
seq_length=4
pitch_keycenter=59
bend_up=138
bend_down=-138
lfo02_pitch_oncc113=61
amp_velcurve_84=1

<region>
sample=../Samples/green/ord/twang_b4_f_rr4.flac
lokey=59
hikey=59
lovel=85
seq_length=4
seq_position=4
pitch_keycenter=59
bend_up=138
bend_down=-138
lfo02_pitch_oncc113=61

<region>
sample=../Samples/green/ord/twang_b4_f_rr3.flac
lokey=59
hikey=59
lovel=85
seq_length=4
seq_position=3
pitch_keycenter=59
bend_up=138
bend_down=-138
lfo02_pitch_oncc113=61

<region>
sample=../Samples/green/ord/twang_b4_f_rr2.flac
lokey=59
hikey=59
lovel=85
seq_length=4
seq_position=2
pitch_keycenter=59
bend_up=138
bend_down=-138
lfo02_pitch_oncc113=61

<region>
sample=../Samples/green/ord/twang_b4_f_rr1.flac
lokey=59
hikey=59
lovel=85
seq_length=4
pitch_keycenter=59
bend_up=138
bend_down=-138
lfo02_pitch_oncc113=61

<region>
sample=../Samples/green/ord/twang_c5_p_rr2.flac
lokey=60
hikey=60
hivel=42
seq_length=4
seq_position=4
bend_up=138
bend_down=-138
lfo02_pitch_oncc113=61
amp_velcurve_42=1

<region>
sample=../Samples/green/ord/twang_c5_p_rr1.flac
lokey=60
hikey=60
hivel=42
seq_length=4
seq_position=3
bend_up=138
bend_down=-138
lfo02_pitch_oncc113=61
amp_velcurve_42=1

<region>
sample=../Samples/green/ord/twang_c5_p_rr2.flac
lokey=60
hikey=60
hivel=42
seq_length=4
seq_position=2
bend_up=138
bend_down=-138
lfo02_pitch_oncc113=61
amp_velcurve_42=1

<region>
sample=../Samples/green/ord/twang_c5_p_rr1.flac
lokey=60
hikey=60
hivel=42
seq_length=4
bend_up=138
bend_down=-138
lfo02_pitch_oncc113=61
amp_velcurve_42=1

<region>
sample=../Samples/green/ord/twang_c5_mf_rr4.flac
lokey=60
hikey=60
lovel=43
hivel=84
seq_length=4
seq_position=4
bend_up=138
bend_down=-138
lfo02_pitch_oncc113=61
amp_velcurve_84=1

<region>
sample=../Samples/green/ord/twang_c5_mf_rr3.flac
lokey=60
hikey=60
lovel=43
hivel=84
seq_length=4
seq_position=3
bend_up=138
bend_down=-138
lfo02_pitch_oncc113=61
amp_velcurve_84=1

<region>
sample=../Samples/green/ord/twang_c5_mf_rr2.flac
lokey=60
hikey=60
lovel=43
hivel=84
seq_length=4
seq_position=2
bend_up=138
bend_down=-138
lfo02_pitch_oncc113=61
amp_velcurve_84=1

<region>
sample=../Samples/green/ord/twang_c5_mf_rr1.flac
lokey=60
hikey=60
lovel=43
hivel=84
seq_length=4
bend_up=138
bend_down=-138
lfo02_pitch_oncc113=61
amp_velcurve_84=1

<region>
sample=../Samples/green/ord/twang_c5_f_rr4.flac
lokey=60
hikey=60
lovel=85
seq_length=4
seq_position=4
bend_up=138
bend_down=-138
lfo02_pitch_oncc113=61

<region>
sample=../Samples/green/ord/twang_c5_f_rr3.flac
lokey=60
hikey=60
lovel=85
seq_length=4
seq_position=3
bend_up=138
bend_down=-138
lfo02_pitch_oncc113=61

<region>
sample=../Samples/green/ord/twang_c5_f_rr2.flac
lokey=60
hikey=60
lovel=85
seq_length=4
seq_position=2
bend_up=138
bend_down=-138
lfo02_pitch_oncc113=61

<region>
sample=../Samples/green/ord/twang_c5_f_rr1.flac
lokey=60
hikey=60
lovel=85
seq_length=4
bend_up=138
bend_down=-138
lfo02_pitch_oncc113=61

<region>
sample=../Samples/green/ord/twang_db5_p_rr2.flac
lokey=61
hikey=61
hivel=42
seq_length=4
seq_position=4
pitch_keycenter=61
bend_up=138
bend_down=-138
lfo02_pitch_oncc113=61
amp_velcurve_42=1

<region>
sample=../Samples/green/ord/twang_db5_p_rr1.flac
lokey=61
hikey=61
hivel=42
seq_length=4
seq_position=3
pitch_keycenter=61
bend_up=138
bend_down=-138
lfo02_pitch_oncc113=61
amp_velcurve_42=1

<region>
sample=../Samples/green/ord/twang_db5_p_rr2.flac
lokey=61
hikey=61
hivel=42
seq_length=4
seq_position=2
pitch_keycenter=61
bend_up=138
bend_down=-138
lfo02_pitch_oncc113=61
amp_velcurve_42=1

<region>
sample=../Samples/green/ord/twang_db5_p_rr1.flac
lokey=61
hikey=61
hivel=42
seq_length=4
pitch_keycenter=61
bend_up=138
bend_down=-138
lfo02_pitch_oncc113=61
amp_velcurve_42=1

<region>
sample=../Samples/green/ord/twang_db5_mf_rr4.flac
lokey=61
hikey=61
lovel=43
hivel=84
seq_length=4
seq_position=4
pitch_keycenter=61
bend_up=138
bend_down=-138
lfo02_pitch_oncc113=61
amp_velcurve_84=1

<region>
sample=../Samples/green/ord/twang_db5_mf_rr3.flac
lokey=61
hikey=61
lovel=43
hivel=84
seq_length=4
seq_position=3
pitch_keycenter=61
bend_up=138
bend_down=-138
lfo02_pitch_oncc113=61
amp_velcurve_84=1

<region>
sample=../Samples/green/ord/twang_db5_mf_rr2.flac
lokey=61
hikey=61
lovel=43
hivel=84
seq_length=4
seq_position=2
pitch_keycenter=61
bend_up=138
bend_down=-138
lfo02_pitch_oncc113=61
amp_velcurve_84=1

<region>
sample=../Samples/green/ord/twang_db5_mf_rr1.flac
lokey=61
hikey=61
lovel=43
hivel=84
seq_length=4
pitch_keycenter=61
bend_up=138
bend_down=-138
lfo02_pitch_oncc113=61
amp_velcurve_84=1

<region>
sample=../Samples/green/ord/twang_db5_f_rr4.flac
lokey=61
hikey=61
lovel=85
seq_length=4
seq_position=4
pitch_keycenter=61
bend_up=138
bend_down=-138
lfo02_pitch_oncc113=61

<region>
sample=../Samples/green/ord/twang_db5_f_rr3.flac
lokey=61
hikey=61
lovel=85
seq_length=4
seq_position=3
pitch_keycenter=61
bend_up=138
bend_down=-138
lfo02_pitch_oncc113=61

<region>
sample=../Samples/green/ord/twang_db5_f_rr2.flac
lokey=61
hikey=61
lovel=85
seq_length=4
seq_position=2
pitch_keycenter=61
bend_up=138
bend_down=-138
lfo02_pitch_oncc113=61

<region>
sample=../Samples/green/ord/twang_db5_f_rr1.flac
lokey=61
hikey=61
lovel=85
seq_length=4
pitch_keycenter=61
bend_up=138
bend_down=-138
lfo02_pitch_oncc113=61

<region>
sample=../Samples/green/ord/twang_d5_p_rr2.flac
lokey=62
hikey=62
hivel=42
seq_length=4
seq_position=4
pitch_keycenter=62
bend_up=138
bend_down=-138
lfo02_pitch_oncc113=61
amp_velcurve_42=1

<region>
sample=../Samples/green/ord/twang_d5_p_rr1.flac
lokey=62
hikey=62
hivel=42
seq_length=4
seq_position=3
pitch_keycenter=62
bend_up=138
bend_down=-138
lfo02_pitch_oncc113=61
amp_velcurve_42=1

<region>
sample=../Samples/green/ord/twang_d5_p_rr2.flac
lokey=62
hikey=62
hivel=42
seq_length=4
seq_position=2
pitch_keycenter=62
bend_up=138
bend_down=-138
lfo02_pitch_oncc113=61
amp_velcurve_42=1

<region>
sample=../Samples/green/ord/twang_d5_p_rr1.flac
lokey=62
hikey=62
hivel=42
seq_length=4
pitch_keycenter=62
bend_up=138
bend_down=-138
lfo02_pitch_oncc113=61
amp_velcurve_42=1

<region>
sample=../Samples/green/ord/twang_d5_mf_rr4.flac
lokey=62
hikey=62
lovel=43
hivel=84
seq_length=4
seq_position=4
pitch_keycenter=62
bend_up=138
bend_down=-138
lfo02_pitch_oncc113=61
amp_velcurve_84=1

<region>
sample=../Samples/green/ord/twang_d5_mf_rr3.flac
lokey=62
hikey=62
lovel=43
hivel=84
seq_length=4
seq_position=3
pitch_keycenter=62
bend_up=138
bend_down=-138
lfo02_pitch_oncc113=61
amp_velcurve_84=1

<region>
sample=../Samples/green/ord/twang_d5_mf_rr2.flac
lokey=62
hikey=62
lovel=43
hivel=84
seq_length=4
seq_position=2
pitch_keycenter=62
bend_up=138
bend_down=-138
lfo02_pitch_oncc113=61
amp_velcurve_84=1

<region>
sample=../Samples/green/ord/twang_d5_mf_rr1.flac
lokey=62
hikey=62
lovel=43
hivel=84
seq_length=4
pitch_keycenter=62
bend_up=138
bend_down=-138
lfo02_pitch_oncc113=61
amp_velcurve_84=1

<region>
sample=../Samples/green/ord/twang_d5_f_rr4.flac
lokey=62
hikey=62
lovel=85
seq_length=4
seq_position=4
pitch_keycenter=62
bend_up=138
bend_down=-138
lfo02_pitch_oncc113=61

<region>
sample=../Samples/green/ord/twang_d5_f_rr3.flac
lokey=62
hikey=62
lovel=85
seq_length=4
seq_position=3
pitch_keycenter=62
bend_up=138
bend_down=-138
lfo02_pitch_oncc113=61

<region>
sample=../Samples/green/ord/twang_d5_f_rr2.flac
lokey=62
hikey=62
lovel=85
seq_length=4
seq_position=2
pitch_keycenter=62
bend_up=138
bend_down=-138
lfo02_pitch_oncc113=61

<region>
sample=../Samples/green/ord/twang_d5_f_rr1.flac
lokey=62
hikey=62
lovel=85
seq_length=4
pitch_keycenter=62
bend_up=138
bend_down=-138
lfo02_pitch_oncc113=61

<region>
sample=../Samples/green/ord/twang_eb5_p_rr2.flac
lokey=63
hikey=63
hivel=42
seq_length=4
seq_position=4
pitch_keycenter=63
bend_up=138
bend_down=-138
lfo02_pitch_oncc113=61
amp_velcurve_42=1

<region>
sample=../Samples/green/ord/twang_eb5_p_rr1.flac
lokey=63
hikey=63
hivel=42
seq_length=4
seq_position=3
pitch_keycenter=63
bend_up=138
bend_down=-138
lfo02_pitch_oncc113=61
amp_velcurve_42=1

<region>
sample=../Samples/green/ord/twang_eb5_p_rr2.flac
lokey=63
hikey=63
hivel=42
seq_length=4
seq_position=2
pitch_keycenter=63
bend_up=138
bend_down=-138
lfo02_pitch_oncc113=61
amp_velcurve_42=1

<region>
sample=../Samples/green/ord/twang_eb5_p_rr1.flac
lokey=63
hikey=63
hivel=42
seq_length=4
pitch_keycenter=63
bend_up=138
bend_down=-138
lfo02_pitch_oncc113=61
amp_velcurve_42=1

<region>
sample=../Samples/green/ord/twang_eb5_mf_rr4.flac
lokey=63
hikey=63
lovel=43
hivel=84
seq_length=4
seq_position=4
pitch_keycenter=63
bend_up=138
bend_down=-138
lfo02_pitch_oncc113=61
amp_velcurve_84=1

<region>
sample=../Samples/green/ord/twang_eb5_mf_rr3.flac
lokey=63
hikey=63
lovel=43
hivel=84
seq_length=4
seq_position=3
pitch_keycenter=63
bend_up=138
bend_down=-138
lfo02_pitch_oncc113=61
amp_velcurve_84=1

<region>
sample=../Samples/green/ord/twang_eb5_mf_rr2.flac
lokey=63
hikey=63
lovel=43
hivel=84
seq_length=4
seq_position=2
pitch_keycenter=63
bend_up=138
bend_down=-138
lfo02_pitch_oncc113=61
amp_velcurve_84=1

<region>
sample=../Samples/green/ord/twang_eb5_mf_rr1.flac
lokey=63
hikey=63
lovel=43
hivel=84
seq_length=4
pitch_keycenter=63
bend_up=138
bend_down=-138
lfo02_pitch_oncc113=61
amp_velcurve_84=1

<region>
sample=../Samples/green/ord/twang_eb5_f_rr4.flac
lokey=63
hikey=63
lovel=85
seq_length=4
seq_position=4
pitch_keycenter=63
bend_up=138
bend_down=-138
lfo02_pitch_oncc113=61

<region>
sample=../Samples/green/ord/twang_eb5_f_rr3.flac
lokey=63
hikey=63
lovel=85
seq_length=4
seq_position=3
pitch_keycenter=63
bend_up=138
bend_down=-138
lfo02_pitch_oncc113=61

<region>
sample=../Samples/green/ord/twang_eb5_f_rr2.flac
lokey=63
hikey=63
lovel=85
seq_length=4
seq_position=2
pitch_keycenter=63
bend_up=138
bend_down=-138
lfo02_pitch_oncc113=61

<region>
sample=../Samples/green/ord/twang_eb5_f_rr1.flac
lokey=63
hikey=63
lovel=85
seq_length=4
pitch_keycenter=63
bend_up=138
bend_down=-138
lfo02_pitch_oncc113=61

<region>
sample=../Samples/green/ord/twang_e5_p_rr2.flac
lokey=64
hikey=64
hivel=42
seq_length=4
seq_position=4
pitch_keycenter=64
bend_up=94
bend_down=-94
lfo02_pitch_oncc113=42
amp_velcurve_42=1

<region>
sample=../Samples/green/ord/twang_e5_p_rr1.flac
lokey=64
hikey=64
hivel=42
seq_length=4
seq_position=3
pitch_keycenter=64
bend_up=94
bend_down=-94
lfo02_pitch_oncc113=42
amp_velcurve_42=1

<region>
sample=../Samples/green/ord/twang_e5_p_rr2.flac
lokey=64
hikey=64
hivel=42
seq_length=4
seq_position=2
pitch_keycenter=64
bend_up=94
bend_down=-94
lfo02_pitch_oncc113=42
amp_velcurve_42=1

<region>
sample=../Samples/green/ord/twang_e5_p_rr1.flac
lokey=64
hikey=64
hivel=42
seq_length=4
pitch_keycenter=64
bend_up=94
bend_down=-94
lfo02_pitch_oncc113=42
amp_velcurve_42=1

<region>
sample=../Samples/green/ord/twang_e5_mf_rr4.flac
lokey=64
hikey=64
lovel=43
hivel=84
seq_length=4
seq_position=4
pitch_keycenter=64
bend_up=94
bend_down=-94
lfo02_pitch_oncc113=42
amp_velcurve_84=1

<region>
sample=../Samples/green/ord/twang_e5_mf_rr3.flac
lokey=64
hikey=64
lovel=43
hivel=84
seq_length=4
seq_position=3
pitch_keycenter=64
bend_up=94
bend_down=-94
lfo02_pitch_oncc113=42
amp_velcurve_84=1

<region>
sample=../Samples/green/ord/twang_e5_mf_rr2.flac
lokey=64
hikey=64
lovel=43
hivel=84
seq_length=4
seq_position=2
pitch_keycenter=64
bend_up=94
bend_down=-94
lfo02_pitch_oncc113=42
amp_velcurve_84=1

<region>
sample=../Samples/green/ord/twang_e5_mf_rr1.flac
lokey=64
hikey=64
lovel=43
hivel=84
seq_length=4
pitch_keycenter=64
bend_up=94
bend_down=-94
lfo02_pitch_oncc113=42
amp_velcurve_84=1

<region>
sample=../Samples/green/ord/twang_e5_f_rr4.flac
lokey=64
hikey=64
lovel=85
seq_length=4
seq_position=4
pitch_keycenter=64
bend_up=94
bend_down=-94
lfo02_pitch_oncc113=42

<region>
sample=../Samples/green/ord/twang_e5_f_rr3.flac
lokey=64
hikey=64
lovel=85
seq_length=4
seq_position=3
pitch_keycenter=64
bend_up=94
bend_down=-94
lfo02_pitch_oncc113=42

<region>
sample=../Samples/green/ord/twang_e5_f_rr2.flac
lokey=64
hikey=64
lovel=85
seq_length=4
seq_position=2
pitch_keycenter=64
bend_up=94
bend_down=-94
lfo02_pitch_oncc113=42

<region>
sample=../Samples/green/ord/twang_e5_f_rr1.flac
lokey=64
hikey=64
lovel=85
seq_length=4
pitch_keycenter=64
bend_up=94
bend_down=-94
lfo02_pitch_oncc113=42

<region>
sample=../Samples/green/ord/twang_f5_p_rr2.flac
lokey=65
hikey=65
hivel=42
seq_length=4
seq_position=4
pitch_keycenter=65
bend_up=94
bend_down=-94
lfo02_pitch_oncc113=42
amp_velcurve_42=1

<region>
sample=../Samples/green/ord/twang_f5_p_rr1.flac
lokey=65
hikey=65
hivel=42
seq_length=4
seq_position=3
pitch_keycenter=65
bend_up=94
bend_down=-94
lfo02_pitch_oncc113=42
amp_velcurve_42=1

<region>
sample=../Samples/green/ord/twang_f5_p_rr2.flac
lokey=65
hikey=65
hivel=42
seq_length=4
seq_position=2
pitch_keycenter=65
bend_up=94
bend_down=-94
lfo02_pitch_oncc113=42
amp_velcurve_42=1

<region>
sample=../Samples/green/ord/twang_f5_p_rr1.flac
lokey=65
hikey=65
hivel=42
seq_length=4
pitch_keycenter=65
bend_up=94
bend_down=-94
lfo02_pitch_oncc113=42
amp_velcurve_42=1

<region>
sample=../Samples/green/ord/twang_f5_mf_rr4.flac
lokey=65
hikey=65
lovel=43
hivel=84
seq_length=4
seq_position=4
pitch_keycenter=65
bend_up=94
bend_down=-94
lfo02_pitch_oncc113=42
amp_velcurve_84=1

<region>
sample=../Samples/green/ord/twang_f5_mf_rr3.flac
lokey=65
hikey=65
lovel=43
hivel=84
seq_length=4
seq_position=3
pitch_keycenter=65
bend_up=94
bend_down=-94
lfo02_pitch_oncc113=42
amp_velcurve_84=1

<region>
sample=../Samples/green/ord/twang_f5_mf_rr2.flac
lokey=65
hikey=65
lovel=43
hivel=84
seq_length=4
seq_position=2
pitch_keycenter=65
bend_up=94
bend_down=-94
lfo02_pitch_oncc113=42
amp_velcurve_84=1

<region>
sample=../Samples/green/ord/twang_f5_mf_rr1.flac
lokey=65
hikey=65
lovel=43
hivel=84
seq_length=4
pitch_keycenter=65
bend_up=94
bend_down=-94
lfo02_pitch_oncc113=42
amp_velcurve_84=1

<region>
sample=../Samples/green/ord/twang_f5_f_rr4.flac
lokey=65
hikey=65
lovel=85
seq_length=4
seq_position=4
pitch_keycenter=65
bend_up=94
bend_down=-94
lfo02_pitch_oncc113=42

<region>
sample=../Samples/green/ord/twang_f5_f_rr3.flac
lokey=65
hikey=65
lovel=85
seq_length=4
seq_position=3
pitch_keycenter=65
bend_up=94
bend_down=-94
lfo02_pitch_oncc113=42

<region>
sample=../Samples/green/ord/twang_f5_f_rr2.flac
lokey=65
hikey=65
lovel=85
seq_length=4
seq_position=2
pitch_keycenter=65
bend_up=94
bend_down=-94
lfo02_pitch_oncc113=42

<region>
sample=../Samples/green/ord/twang_f5_f_rr1.flac
lokey=65
hikey=65
lovel=85
seq_length=4
pitch_keycenter=65
bend_up=94
bend_down=-94
lfo02_pitch_oncc113=42

<region>
sample=../Samples/green/ord/twang_gb5_p_rr2.flac
lokey=66
hikey=66
hivel=42
seq_length=4
seq_position=4
pitch_keycenter=66
bend_up=94
bend_down=-94
lfo02_pitch_oncc113=42
amp_velcurve_42=1

<region>
sample=../Samples/green/ord/twang_gb5_p_rr1.flac
lokey=66
hikey=66
hivel=42
seq_length=4
seq_position=3
pitch_keycenter=66
bend_up=94
bend_down=-94
lfo02_pitch_oncc113=42
amp_velcurve_42=1

<region>
sample=../Samples/green/ord/twang_gb5_p_rr2.flac
lokey=66
hikey=66
hivel=42
seq_length=4
seq_position=2
pitch_keycenter=66
bend_up=94
bend_down=-94
lfo02_pitch_oncc113=42
amp_velcurve_42=1

<region>
sample=../Samples/green/ord/twang_gb5_p_rr1.flac
lokey=66
hikey=66
hivel=42
seq_length=4
pitch_keycenter=66
bend_up=94
bend_down=-94
lfo02_pitch_oncc113=42
amp_velcurve_42=1

<region>
sample=../Samples/green/ord/twang_gb5_mf_rr4.flac
lokey=66
hikey=66
lovel=43
hivel=84
seq_length=4
seq_position=4
pitch_keycenter=66
bend_up=94
bend_down=-94
lfo02_pitch_oncc113=42
amp_velcurve_84=1

<region>
sample=../Samples/green/ord/twang_gb5_mf_rr3.flac
lokey=66
hikey=66
lovel=43
hivel=84
seq_length=4
seq_position=3
pitch_keycenter=66
bend_up=94
bend_down=-94
lfo02_pitch_oncc113=42
amp_velcurve_84=1

<region>
sample=../Samples/green/ord/twang_gb5_mf_rr2.flac
lokey=66
hikey=66
lovel=43
hivel=84
seq_length=4
seq_position=2
pitch_keycenter=66
bend_up=94
bend_down=-94
lfo02_pitch_oncc113=42
amp_velcurve_84=1

<region>
sample=../Samples/green/ord/twang_gb5_mf_rr1.flac
lokey=66
hikey=66
lovel=43
hivel=84
seq_length=4
pitch_keycenter=66
bend_up=94
bend_down=-94
lfo02_pitch_oncc113=42
amp_velcurve_84=1

<region>
sample=../Samples/green/ord/twang_gb5_f_rr4.flac
lokey=66
hikey=66
lovel=85
seq_length=4
seq_position=4
pitch_keycenter=66
bend_up=94
bend_down=-94
lfo02_pitch_oncc113=42

<region>
sample=../Samples/green/ord/twang_gb5_f_rr3.flac
lokey=66
hikey=66
lovel=85
seq_length=4
seq_position=3
pitch_keycenter=66
bend_up=94
bend_down=-94
lfo02_pitch_oncc113=42

<region>
sample=../Samples/green/ord/twang_gb5_f_rr2.flac
lokey=66
hikey=66
lovel=85
seq_length=4
seq_position=2
pitch_keycenter=66
bend_up=94
bend_down=-94
lfo02_pitch_oncc113=42

<region>
sample=../Samples/green/ord/twang_gb5_f_rr1.flac
lokey=66
hikey=66
lovel=85
seq_length=4
pitch_keycenter=66
bend_up=94
bend_down=-94
lfo02_pitch_oncc113=42

<region>
sample=../Samples/green/ord/twang_g5_p_rr2.flac
lokey=67
hikey=67
hivel=42
seq_length=4
seq_position=4
pitch_keycenter=67
bend_up=94
bend_down=-94
lfo02_pitch_oncc113=42
amp_velcurve_42=1

<region>
sample=../Samples/green/ord/twang_g5_p_rr1.flac
lokey=67
hikey=67
hivel=42
seq_length=4
seq_position=3
pitch_keycenter=67
bend_up=94
bend_down=-94
lfo02_pitch_oncc113=42
amp_velcurve_42=1

<region>
sample=../Samples/green/ord/twang_g5_p_rr2.flac
lokey=67
hikey=67
hivel=42
seq_length=4
seq_position=2
pitch_keycenter=67
bend_up=94
bend_down=-94
lfo02_pitch_oncc113=42
amp_velcurve_42=1

<region>
sample=../Samples/green/ord/twang_g5_p_rr1.flac
lokey=67
hikey=67
hivel=42
seq_length=4
pitch_keycenter=67
bend_up=94
bend_down=-94
lfo02_pitch_oncc113=42
amp_velcurve_42=1

<region>
sample=../Samples/green/ord/twang_g5_mf_rr4.flac
lokey=67
hikey=67
lovel=43
hivel=84
seq_length=4
seq_position=4
pitch_keycenter=67
bend_up=94
bend_down=-94
lfo02_pitch_oncc113=42
amp_velcurve_84=1

<region>
sample=../Samples/green/ord/twang_g5_mf_rr3.flac
lokey=67
hikey=67
lovel=43
hivel=84
seq_length=4
seq_position=3
pitch_keycenter=67
bend_up=94
bend_down=-94
lfo02_pitch_oncc113=42
amp_velcurve_84=1

<region>
sample=../Samples/green/ord/twang_g5_mf_rr2.flac
lokey=67
hikey=67
lovel=43
hivel=84
seq_length=4
seq_position=2
pitch_keycenter=67
bend_up=94
bend_down=-94
lfo02_pitch_oncc113=42
amp_velcurve_84=1

<region>
sample=../Samples/green/ord/twang_g5_mf_rr1.flac
lokey=67
hikey=67
lovel=43
hivel=84
seq_length=4
pitch_keycenter=67
bend_up=94
bend_down=-94
lfo02_pitch_oncc113=42
amp_velcurve_84=1

<region>
sample=../Samples/green/ord/twang_g5_f_rr4.flac
lokey=67
hikey=67
lovel=85
seq_length=4
seq_position=4
pitch_keycenter=67
bend_up=94
bend_down=-94
lfo02_pitch_oncc113=42

<region>
sample=../Samples/green/ord/twang_g5_f_rr3.flac
lokey=67
hikey=67
lovel=85
seq_length=4
seq_position=3
pitch_keycenter=67
bend_up=94
bend_down=-94
lfo02_pitch_oncc113=42

<region>
sample=../Samples/green/ord/twang_g5_f_rr2.flac
lokey=67
hikey=67
lovel=85
seq_length=4
seq_position=2
pitch_keycenter=67
bend_up=94
bend_down=-94
lfo02_pitch_oncc113=42

<region>
sample=../Samples/green/ord/twang_g5_f_rr1.flac
lokey=67
hikey=67
lovel=85
seq_length=4
pitch_keycenter=67
bend_up=94
bend_down=-94
lfo02_pitch_oncc113=42

<region>
sample=../Samples/green/ord/twang_ab5_p_rr2.flac
lokey=68
hikey=68
hivel=42
seq_length=4
seq_position=4
pitch_keycenter=68
bend_up=94
bend_down=-94
lfo02_pitch_oncc113=42
amp_velcurve_42=1

<region>
sample=../Samples/green/ord/twang_ab5_p_rr1.flac
lokey=68
hikey=68
hivel=42
seq_length=4
seq_position=3
pitch_keycenter=68
bend_up=94
bend_down=-94
lfo02_pitch_oncc113=42
amp_velcurve_42=1

<region>
sample=../Samples/green/ord/twang_ab5_p_rr2.flac
lokey=68
hikey=68
hivel=42
seq_length=4
seq_position=2
pitch_keycenter=68
bend_up=94
bend_down=-94
lfo02_pitch_oncc113=42
amp_velcurve_42=1

<region>
sample=../Samples/green/ord/twang_ab5_p_rr1.flac
lokey=68
hikey=68
hivel=42
seq_length=4
pitch_keycenter=68
bend_up=94
bend_down=-94
lfo02_pitch_oncc113=42
amp_velcurve_42=1

<region>
sample=../Samples/green/ord/twang_ab5_mf_rr4.flac
lokey=68
hikey=68
lovel=43
hivel=84
seq_length=4
seq_position=4
pitch_keycenter=68
bend_up=94
bend_down=-94
lfo02_pitch_oncc113=42
amp_velcurve_84=1

<region>
sample=../Samples/green/ord/twang_ab5_mf_rr3.flac
lokey=68
hikey=68
lovel=43
hivel=84
seq_length=4
seq_position=3
pitch_keycenter=68
bend_up=94
bend_down=-94
lfo02_pitch_oncc113=42
amp_velcurve_84=1

<region>
sample=../Samples/green/ord/twang_ab5_mf_rr2.flac
lokey=68
hikey=68
lovel=43
hivel=84
seq_length=4
seq_position=2
pitch_keycenter=68
bend_up=94
bend_down=-94
lfo02_pitch_oncc113=42
amp_velcurve_84=1

<region>
sample=../Samples/green/ord/twang_ab5_mf_rr1.flac
lokey=68
hikey=68
lovel=43
hivel=84
seq_length=4
pitch_keycenter=68
bend_up=94
bend_down=-94
lfo02_pitch_oncc113=42
amp_velcurve_84=1

<region>
sample=../Samples/green/ord/twang_ab5_f_rr4.flac
lokey=68
hikey=68
lovel=85
seq_length=4
seq_position=4
pitch_keycenter=68
bend_up=94
bend_down=-94
lfo02_pitch_oncc113=42

<region>
sample=../Samples/green/ord/twang_ab5_f_rr3.flac
lokey=68
hikey=68
lovel=85
seq_length=4
seq_position=3
pitch_keycenter=68
bend_up=94
bend_down=-94
lfo02_pitch_oncc113=42

<region>
sample=../Samples/green/ord/twang_ab5_f_rr2.flac
lokey=68
hikey=68
lovel=85
seq_length=4
seq_position=2
pitch_keycenter=68
bend_up=94
bend_down=-94
lfo02_pitch_oncc113=42

<region>
sample=../Samples/green/ord/twang_ab5_f_rr1.flac
lokey=68
hikey=68
lovel=85
seq_length=4
pitch_keycenter=68
bend_up=94
bend_down=-94
lfo02_pitch_oncc113=42

<region>
sample=../Samples/green/ord/twang_a5_p_rr2.flac
lokey=69
hikey=69
hivel=42
seq_length=4
seq_position=4
pitch_keycenter=69
bend_up=92
bend_down=-92
lfo02_pitch_oncc113=41
amp_velcurve_42=1

<region>
sample=../Samples/green/ord/twang_a5_p_rr1.flac
lokey=69
hikey=69
hivel=42
seq_length=4
seq_position=3
pitch_keycenter=69
bend_up=92
bend_down=-92
lfo02_pitch_oncc113=41
amp_velcurve_42=1

<region>
sample=../Samples/green/ord/twang_a5_p_rr2.flac
lokey=69
hikey=69
hivel=42
seq_length=4
seq_position=2
pitch_keycenter=69
bend_up=92
bend_down=-92
lfo02_pitch_oncc113=41
amp_velcurve_42=1

<region>
sample=../Samples/green/ord/twang_a5_p_rr1.flac
lokey=69
hikey=69
hivel=42
seq_length=4
pitch_keycenter=69
bend_up=92
bend_down=-92
lfo02_pitch_oncc113=41
amp_velcurve_42=1

<region>
sample=../Samples/green/ord/twang_a5_mf_rr4.flac
lokey=69
hikey=69
lovel=43
hivel=84
seq_length=4
seq_position=4
pitch_keycenter=69
bend_up=92
bend_down=-92
lfo02_pitch_oncc113=41
amp_velcurve_84=1

<region>
sample=../Samples/green/ord/twang_a5_mf_rr3.flac
lokey=69
hikey=69
lovel=43
hivel=84
seq_length=4
seq_position=3
pitch_keycenter=69
bend_up=92
bend_down=-92
lfo02_pitch_oncc113=41
amp_velcurve_84=1

<region>
sample=../Samples/green/ord/twang_a5_mf_rr2.flac
lokey=69
hikey=69
lovel=43
hivel=84
seq_length=4
seq_position=2
pitch_keycenter=69
bend_up=92
bend_down=-92
lfo02_pitch_oncc113=41
amp_velcurve_84=1

<region>
sample=../Samples/green/ord/twang_a5_mf_rr1.flac
lokey=69
hikey=69
lovel=43
hivel=84
seq_length=4
pitch_keycenter=69
bend_up=92
bend_down=-92
lfo02_pitch_oncc113=41
amp_velcurve_84=1

<region>
sample=../Samples/green/ord/twang_a5_f_rr4.flac
lokey=69
hikey=69
lovel=85
seq_length=4
seq_position=4
pitch_keycenter=69
bend_up=92
bend_down=-92
lfo02_pitch_oncc113=41

<region>
sample=../Samples/green/ord/twang_a5_f_rr3.flac
lokey=69
hikey=69
lovel=85
seq_length=4
seq_position=3
pitch_keycenter=69
bend_up=92
bend_down=-92
lfo02_pitch_oncc113=41

<region>
sample=../Samples/green/ord/twang_a5_f_rr2.flac
lokey=69
hikey=69
lovel=85
seq_length=4
seq_position=2
pitch_keycenter=69
bend_up=92
bend_down=-92
lfo02_pitch_oncc113=41

<region>
sample=../Samples/green/ord/twang_a5_f_rr1.flac
lokey=69
hikey=69
lovel=85
seq_length=4
pitch_keycenter=69
bend_up=92
bend_down=-92
lfo02_pitch_oncc113=41

<region>
sample=../Samples/green/ord/twang_bb5_p_rr2.flac
lokey=70
hikey=70
hivel=42
seq_length=4
seq_position=4
pitch_keycenter=70
bend_up=89
bend_down=-89
lfo02_pitch_oncc113=40
amp_velcurve_42=1

<region>
sample=../Samples/green/ord/twang_bb5_p_rr1.flac
lokey=70
hikey=70
hivel=42
seq_length=4
seq_position=3
pitch_keycenter=70
bend_up=89
bend_down=-89
lfo02_pitch_oncc113=40
amp_velcurve_42=1

<region>
sample=../Samples/green/ord/twang_bb5_p_rr2.flac
lokey=70
hikey=70
hivel=42
seq_length=4
seq_position=2
pitch_keycenter=70
bend_up=89
bend_down=-89
lfo02_pitch_oncc113=40
amp_velcurve_42=1

<region>
sample=../Samples/green/ord/twang_bb5_p_rr1.flac
lokey=70
hikey=70
hivel=42
seq_length=4
pitch_keycenter=70
bend_up=89
bend_down=-89
lfo02_pitch_oncc113=40
amp_velcurve_42=1

<region>
sample=../Samples/green/ord/twang_bb5_mf_rr4.flac
lokey=70
hikey=70
lovel=43
hivel=84
seq_length=4
seq_position=4
pitch_keycenter=70
bend_up=89
bend_down=-89
lfo02_pitch_oncc113=40
amp_velcurve_84=1

<region>
sample=../Samples/green/ord/twang_bb5_mf_rr3.flac
lokey=70
hikey=70
lovel=43
hivel=84
seq_length=4
seq_position=3
pitch_keycenter=70
bend_up=89
bend_down=-89
lfo02_pitch_oncc113=40
amp_velcurve_84=1

<region>
sample=../Samples/green/ord/twang_bb5_mf_rr2.flac
lokey=70
hikey=70
lovel=43
hivel=84
seq_length=4
seq_position=2
pitch_keycenter=70
bend_up=89
bend_down=-89
lfo02_pitch_oncc113=40
amp_velcurve_84=1

<region>
sample=../Samples/green/ord/twang_bb5_mf_rr1.flac
lokey=70
hikey=70
lovel=43
hivel=84
seq_length=4
pitch_keycenter=70
bend_up=89
bend_down=-89
lfo02_pitch_oncc113=40
amp_velcurve_84=1

<region>
sample=../Samples/green/ord/twang_bb5_f_rr4.flac
lokey=70
hikey=70
lovel=85
seq_length=4
seq_position=4
pitch_keycenter=70
bend_up=89
bend_down=-89
lfo02_pitch_oncc113=40

<region>
sample=../Samples/green/ord/twang_bb5_f_rr3.flac
lokey=70
hikey=70
lovel=85
seq_length=4
seq_position=3
pitch_keycenter=70
bend_up=89
bend_down=-89
lfo02_pitch_oncc113=40

<region>
sample=../Samples/green/ord/twang_bb5_f_rr2.flac
lokey=70
hikey=70
lovel=85
seq_length=4
seq_position=2
pitch_keycenter=70
bend_up=89
bend_down=-89
lfo02_pitch_oncc113=40

<region>
sample=../Samples/green/ord/twang_bb5_f_rr1.flac
lokey=70
hikey=70
lovel=85
seq_length=4
pitch_keycenter=70
bend_up=89
bend_down=-89
lfo02_pitch_oncc113=40

<region>
sample=../Samples/green/ord/twang_b5_p_rr2.flac
lokey=71
hikey=71
hivel=42
seq_length=4
seq_position=4
pitch_keycenter=71
bend_up=86
bend_down=-86
lfo02_pitch_oncc113=38
amp_velcurve_42=1

<region>
sample=../Samples/green/ord/twang_b5_p_rr1.flac
lokey=71
hikey=71
hivel=42
seq_length=4
seq_position=3
pitch_keycenter=71
bend_up=86
bend_down=-86
lfo02_pitch_oncc113=38
amp_velcurve_42=1

<region>
sample=../Samples/green/ord/twang_b5_p_rr2.flac
lokey=71
hikey=71
hivel=42
seq_length=4
seq_position=2
pitch_keycenter=71
bend_up=86
bend_down=-86
lfo02_pitch_oncc113=38
amp_velcurve_42=1

<region>
sample=../Samples/green/ord/twang_b5_p_rr1.flac
lokey=71
hikey=71
hivel=42
seq_length=4
pitch_keycenter=71
bend_up=86
bend_down=-86
lfo02_pitch_oncc113=38
amp_velcurve_42=1

<region>
sample=../Samples/green/ord/twang_b5_mf_rr4.flac
lokey=71
hikey=71
lovel=43
hivel=84
seq_length=4
seq_position=4
pitch_keycenter=71
bend_up=86
bend_down=-86
lfo02_pitch_oncc113=38
amp_velcurve_84=1

<region>
sample=../Samples/green/ord/twang_b5_mf_rr3.flac
lokey=71
hikey=71
lovel=43
hivel=84
seq_length=4
seq_position=3
pitch_keycenter=71
bend_up=86
bend_down=-86
lfo02_pitch_oncc113=38
amp_velcurve_84=1

<region>
sample=../Samples/green/ord/twang_b5_mf_rr2.flac
lokey=71
hikey=71
lovel=43
hivel=84
seq_length=4
seq_position=2
pitch_keycenter=71
bend_up=86
bend_down=-86
lfo02_pitch_oncc113=38
amp_velcurve_84=1

<region>
sample=../Samples/green/ord/twang_b5_mf_rr1.flac
lokey=71
hikey=71
lovel=43
hivel=84
seq_length=4
pitch_keycenter=71
bend_up=86
bend_down=-86
lfo02_pitch_oncc113=38
amp_velcurve_84=1

<region>
sample=../Samples/green/ord/twang_b5_f_rr4.flac
lokey=71
hikey=71
lovel=85
seq_length=4
seq_position=4
pitch_keycenter=71
bend_up=86
bend_down=-86
lfo02_pitch_oncc113=38

<region>
sample=../Samples/green/ord/twang_b5_f_rr3.flac
lokey=71
hikey=71
lovel=85
seq_length=4
seq_position=3
pitch_keycenter=71
bend_up=86
bend_down=-86
lfo02_pitch_oncc113=38

<region>
sample=../Samples/green/ord/twang_b5_f_rr2.flac
lokey=71
hikey=71
lovel=85
seq_length=4
seq_position=2
pitch_keycenter=71
bend_up=86
bend_down=-86
lfo02_pitch_oncc113=38

<region>
sample=../Samples/green/ord/twang_b5_f_rr1.flac
lokey=71
hikey=71
lovel=85
seq_length=4
pitch_keycenter=71
bend_up=86
bend_down=-86
lfo02_pitch_oncc113=38

<region>
sample=../Samples/green/ord/twang_c6_p_rr2.flac
lokey=72
hikey=72
hivel=42
seq_length=4
seq_position=4
pitch_keycenter=72
bend_up=84
bend_down=-84
lfo02_pitch_oncc113=37
amp_velcurve_42=1

<region>
sample=../Samples/green/ord/twang_c6_p_rr1.flac
lokey=72
hikey=72
hivel=42
seq_length=4
seq_position=3
pitch_keycenter=72
bend_up=84
bend_down=-84
lfo02_pitch_oncc113=37
amp_velcurve_42=1

<region>
sample=../Samples/green/ord/twang_c6_p_rr2.flac
lokey=72
hikey=72
hivel=42
seq_length=4
seq_position=2
pitch_keycenter=72
bend_up=84
bend_down=-84
lfo02_pitch_oncc113=37
amp_velcurve_42=1

<region>
sample=../Samples/green/ord/twang_c6_p_rr1.flac
lokey=72
hikey=72
hivel=42
seq_length=4
pitch_keycenter=72
bend_up=84
bend_down=-84
lfo02_pitch_oncc113=37
amp_velcurve_42=1

<region>
sample=../Samples/green/ord/twang_c6_mf_rr4.flac
lokey=72
hikey=72
lovel=43
hivel=84
seq_length=4
seq_position=4
pitch_keycenter=72
bend_up=84
bend_down=-84
lfo02_pitch_oncc113=37
amp_velcurve_84=1

<region>
sample=../Samples/green/ord/twang_c6_mf_rr3.flac
lokey=72
hikey=72
lovel=43
hivel=84
seq_length=4
seq_position=3
pitch_keycenter=72
bend_up=84
bend_down=-84
lfo02_pitch_oncc113=37
amp_velcurve_84=1

<region>
sample=../Samples/green/ord/twang_c6_mf_rr2.flac
lokey=72
hikey=72
lovel=43
hivel=84
seq_length=4
seq_position=2
pitch_keycenter=72
bend_up=84
bend_down=-84
lfo02_pitch_oncc113=37
amp_velcurve_84=1

<region>
sample=../Samples/green/ord/twang_c6_mf_rr1.flac
lokey=72
hikey=72
lovel=43
hivel=84
seq_length=4
pitch_keycenter=72
bend_up=84
bend_down=-84
lfo02_pitch_oncc113=37
amp_velcurve_84=1

<region>
sample=../Samples/green/ord/twang_c6_f_rr4.flac
lokey=72
hikey=72
lovel=85
seq_length=4
seq_position=4
pitch_keycenter=72
bend_up=84
bend_down=-84
lfo02_pitch_oncc113=37

<region>
sample=../Samples/green/ord/twang_c6_f_rr3.flac
lokey=72
hikey=72
lovel=85
seq_length=4
seq_position=3
pitch_keycenter=72
bend_up=84
bend_down=-84
lfo02_pitch_oncc113=37

<region>
sample=../Samples/green/ord/twang_c6_f_rr2.flac
lokey=72
hikey=72
lovel=85
seq_length=4
seq_position=2
pitch_keycenter=72
bend_up=84
bend_down=-84
lfo02_pitch_oncc113=37

<region>
sample=../Samples/green/ord/twang_c6_f_rr1.flac
lokey=72
hikey=72
lovel=85
seq_length=4
pitch_keycenter=72
bend_up=84
bend_down=-84
lfo02_pitch_oncc113=37

<region>
sample=../Samples/green/ord/twang_db6_p_rr2.flac
lokey=73
hikey=73
hivel=42
seq_length=4
seq_position=4
pitch_keycenter=73
bend_up=82
bend_down=-82
lfo02_pitch_oncc113=36
amp_velcurve_42=1

<region>
sample=../Samples/green/ord/twang_db6_p_rr1.flac
lokey=73
hikey=73
hivel=42
seq_length=4
seq_position=3
pitch_keycenter=73
bend_up=82
bend_down=-82
lfo02_pitch_oncc113=36
amp_velcurve_42=1

<region>
sample=../Samples/green/ord/twang_db6_p_rr2.flac
lokey=73
hikey=73
hivel=42
seq_length=4
seq_position=2
pitch_keycenter=73
bend_up=82
bend_down=-82
lfo02_pitch_oncc113=36
amp_velcurve_42=1

<region>
sample=../Samples/green/ord/twang_db6_p_rr1.flac
lokey=73
hikey=73
hivel=42
seq_length=4
pitch_keycenter=73
bend_up=82
bend_down=-82
lfo02_pitch_oncc113=36
amp_velcurve_42=1

<region>
sample=../Samples/green/ord/twang_db6_mf_rr4.flac
lokey=73
hikey=73
lovel=43
hivel=84
seq_length=4
seq_position=4
pitch_keycenter=73
bend_up=82
bend_down=-82
lfo02_pitch_oncc113=36
amp_velcurve_84=1

<region>
sample=../Samples/green/ord/twang_db6_mf_rr3.flac
lokey=73
hikey=73
lovel=43
hivel=84
seq_length=4
seq_position=3
pitch_keycenter=73
bend_up=82
bend_down=-82
lfo02_pitch_oncc113=36
amp_velcurve_84=1

<region>
sample=../Samples/green/ord/twang_db6_mf_rr2.flac
lokey=73
hikey=73
lovel=43
hivel=84
seq_length=4
seq_position=2
pitch_keycenter=73
bend_up=82
bend_down=-82
lfo02_pitch_oncc113=36
amp_velcurve_84=1

<region>
sample=../Samples/green/ord/twang_db6_mf_rr1.flac
lokey=73
hikey=73
lovel=43
hivel=84
seq_length=4
pitch_keycenter=73
bend_up=82
bend_down=-82
lfo02_pitch_oncc113=36
amp_velcurve_84=1

<region>
sample=../Samples/green/ord/twang_db6_f_rr4.flac
lokey=73
hikey=73
lovel=85
seq_length=4
seq_position=4
pitch_keycenter=73
bend_up=82
bend_down=-82
lfo02_pitch_oncc113=36

<region>
sample=../Samples/green/ord/twang_db6_f_rr3.flac
lokey=73
hikey=73
lovel=85
seq_length=4
seq_position=3
pitch_keycenter=73
bend_up=82
bend_down=-82
lfo02_pitch_oncc113=36

<region>
sample=../Samples/green/ord/twang_db6_f_rr2.flac
lokey=73
hikey=73
lovel=85
seq_length=4
seq_position=2
pitch_keycenter=73
bend_up=82
bend_down=-82
lfo02_pitch_oncc113=36

<region>
sample=../Samples/green/ord/twang_db6_f_rr1.flac
lokey=73
hikey=73
lovel=85
seq_length=4
pitch_keycenter=73
bend_up=82
bend_down=-82
lfo02_pitch_oncc113=36

<region>
sample=../Samples/green/ord/twang_d6_p_rr2.flac
lokey=74
hikey=74
hivel=42
seq_length=4
seq_position=4
pitch_keycenter=74
bend_up=80
bend_down=-80
lfo02_pitch_oncc113=35
amp_velcurve_42=1

<region>
sample=../Samples/green/ord/twang_d6_p_rr1.flac
lokey=74
hikey=74
hivel=42
seq_length=4
seq_position=3
pitch_keycenter=74
bend_up=80
bend_down=-80
lfo02_pitch_oncc113=35
amp_velcurve_42=1

<region>
sample=../Samples/green/ord/twang_d6_p_rr2.flac
lokey=74
hikey=74
hivel=42
seq_length=4
seq_position=2
pitch_keycenter=74
bend_up=80
bend_down=-80
lfo02_pitch_oncc113=35
amp_velcurve_42=1

<region>
sample=../Samples/green/ord/twang_d6_p_rr1.flac
lokey=74
hikey=74
hivel=42
seq_length=4
pitch_keycenter=74
bend_up=80
bend_down=-80
lfo02_pitch_oncc113=35
amp_velcurve_42=1

<region>
sample=../Samples/green/ord/twang_d6_mf_rr4.flac
lokey=74
hikey=74
lovel=43
hivel=84
seq_length=4
seq_position=4
pitch_keycenter=74
bend_up=80
bend_down=-80
lfo02_pitch_oncc113=35
amp_velcurve_84=1

<region>
sample=../Samples/green/ord/twang_d6_mf_rr3.flac
lokey=74
hikey=74
lovel=43
hivel=84
seq_length=4
seq_position=3
pitch_keycenter=74
bend_up=80
bend_down=-80
lfo02_pitch_oncc113=35
amp_velcurve_84=1

<region>
sample=../Samples/green/ord/twang_d6_mf_rr2.flac
lokey=74
hikey=74
lovel=43
hivel=84
seq_length=4
seq_position=2
pitch_keycenter=74
bend_up=80
bend_down=-80
lfo02_pitch_oncc113=35
amp_velcurve_84=1

<region>
sample=../Samples/green/ord/twang_d6_mf_rr1.flac
lokey=74
hikey=74
lovel=43
hivel=84
seq_length=4
pitch_keycenter=74
bend_up=80
bend_down=-80
lfo02_pitch_oncc113=35
amp_velcurve_84=1

<region>
sample=../Samples/green/ord/twang_d6_f_rr4.flac
lokey=74
hikey=74
lovel=85
seq_length=4
seq_position=4
pitch_keycenter=74
bend_up=80
bend_down=-80
lfo02_pitch_oncc113=35

<region>
sample=../Samples/green/ord/twang_d6_f_rr3.flac
lokey=74
hikey=74
lovel=85
seq_length=4
seq_position=3
pitch_keycenter=74
bend_up=80
bend_down=-80
lfo02_pitch_oncc113=35

<region>
sample=../Samples/green/ord/twang_d6_f_rr2.flac
lokey=74
hikey=74
lovel=85
seq_length=4
seq_position=2
pitch_keycenter=74
bend_up=80
bend_down=-80
lfo02_pitch_oncc113=35

<region>
sample=../Samples/green/ord/twang_d6_f_rr1.flac
lokey=74
hikey=74
lovel=85
seq_length=4
pitch_keycenter=74
bend_up=80
bend_down=-80
lfo02_pitch_oncc113=35

<region>
sample=../Samples/green/ord/twang_eb6_p_rr2.flac
lokey=75
hikey=75
hivel=42
seq_length=4
seq_position=4
pitch_keycenter=75
bend_up=77
bend_down=-77
lfo02_pitch_oncc113=34
amp_velcurve_42=1

<region>
sample=../Samples/green/ord/twang_eb6_p_rr1.flac
lokey=75
hikey=75
hivel=42
seq_length=4
seq_position=3
pitch_keycenter=75
bend_up=77
bend_down=-77
lfo02_pitch_oncc113=34
amp_velcurve_42=1

<region>
sample=../Samples/green/ord/twang_eb6_p_rr2.flac
lokey=75
hikey=75
hivel=42
seq_length=4
seq_position=2
pitch_keycenter=75
bend_up=77
bend_down=-77
lfo02_pitch_oncc113=34
amp_velcurve_42=1

<region>
sample=../Samples/green/ord/twang_eb6_p_rr1.flac
lokey=75
hikey=75
hivel=42
seq_length=4
pitch_keycenter=75
bend_up=77
bend_down=-77
lfo02_pitch_oncc113=34
amp_velcurve_42=1

<region>
sample=../Samples/green/ord/twang_eb6_mf_rr4.flac
lokey=75
hikey=75
lovel=43
hivel=84
seq_length=4
seq_position=4
pitch_keycenter=75
bend_up=77
bend_down=-77
lfo02_pitch_oncc113=34
amp_velcurve_84=1

<region>
sample=../Samples/green/ord/twang_eb6_mf_rr3.flac
lokey=75
hikey=75
lovel=43
hivel=84
seq_length=4
seq_position=3
pitch_keycenter=75
bend_up=77
bend_down=-77
lfo02_pitch_oncc113=34
amp_velcurve_84=1

<region>
sample=../Samples/green/ord/twang_eb6_mf_rr2.flac
lokey=75
hikey=75
lovel=43
hivel=84
seq_length=4
seq_position=2
pitch_keycenter=75
bend_up=77
bend_down=-77
lfo02_pitch_oncc113=34
amp_velcurve_84=1

<region>
sample=../Samples/green/ord/twang_eb6_mf_rr1.flac
lokey=75
hikey=75
lovel=43
hivel=84
seq_length=4
pitch_keycenter=75
bend_up=77
bend_down=-77
lfo02_pitch_oncc113=34
amp_velcurve_84=1

<region>
sample=../Samples/green/ord/twang_eb6_f_rr4.flac
lokey=75
hikey=75
lovel=85
seq_length=4
seq_position=4
pitch_keycenter=75
bend_up=77
bend_down=-77
lfo02_pitch_oncc113=34

<region>
sample=../Samples/green/ord/twang_eb6_f_rr3.flac
lokey=75
hikey=75
lovel=85
seq_length=4
seq_position=3
pitch_keycenter=75
bend_up=77
bend_down=-77
lfo02_pitch_oncc113=34

<region>
sample=../Samples/green/ord/twang_eb6_f_rr2.flac
lokey=75
hikey=75
lovel=85
seq_length=4
seq_position=2
pitch_keycenter=75
bend_up=77
bend_down=-77
lfo02_pitch_oncc113=34

<region>
sample=../Samples/green/ord/twang_eb6_f_rr1.flac
lokey=75
hikey=75
lovel=85
seq_length=4
pitch_keycenter=75
bend_up=77
bend_down=-77
lfo02_pitch_oncc113=34

<region>
sample=../Samples/green/ord/twang_e6_p_rr2.flac
lokey=76
hikey=76
hivel=42
seq_length=4
seq_position=4
pitch_keycenter=76
bend_up=75
bend_down=-75
lfo02_pitch_oncc113=33
amp_velcurve_42=1

<region>
sample=../Samples/green/ord/twang_e6_p_rr1.flac
lokey=76
hikey=76
hivel=42
seq_length=4
seq_position=3
pitch_keycenter=76
bend_up=75
bend_down=-75
lfo02_pitch_oncc113=33
amp_velcurve_42=1

<region>
sample=../Samples/green/ord/twang_e6_p_rr2.flac
lokey=76
hikey=76
hivel=42
seq_length=4
seq_position=2
pitch_keycenter=76
bend_up=75
bend_down=-75
lfo02_pitch_oncc113=33
amp_velcurve_42=1

<region>
sample=../Samples/green/ord/twang_e6_p_rr1.flac
lokey=76
hikey=76
hivel=42
seq_length=4
pitch_keycenter=76
bend_up=75
bend_down=-75
lfo02_pitch_oncc113=33
amp_velcurve_42=1

<region>
sample=../Samples/green/ord/twang_e6_mf_rr4.flac
lokey=76
hikey=76
lovel=43
hivel=84
seq_length=4
seq_position=4
pitch_keycenter=76
bend_up=75
bend_down=-75
lfo02_pitch_oncc113=33
amp_velcurve_84=1

<region>
sample=../Samples/green/ord/twang_e6_mf_rr3.flac
lokey=76
hikey=76
lovel=43
hivel=84
seq_length=4
seq_position=3
pitch_keycenter=76
bend_up=75
bend_down=-75
lfo02_pitch_oncc113=33
amp_velcurve_84=1

<region>
sample=../Samples/green/ord/twang_e6_mf_rr2.flac
lokey=76
hikey=76
lovel=43
hivel=84
seq_length=4
seq_position=2
pitch_keycenter=76
bend_up=75
bend_down=-75
lfo02_pitch_oncc113=33
amp_velcurve_84=1

<region>
sample=../Samples/green/ord/twang_e6_mf_rr1.flac
lokey=76
hikey=76
lovel=43
hivel=84
seq_length=4
pitch_keycenter=76
bend_up=75
bend_down=-75
lfo02_pitch_oncc113=33
amp_velcurve_84=1

<region>
sample=../Samples/green/ord/twang_e6_f_rr4.flac
lokey=76
hikey=76
lovel=85
seq_length=4
seq_position=4
pitch_keycenter=76
bend_up=75
bend_down=-75
lfo02_pitch_oncc113=33

<region>
sample=../Samples/green/ord/twang_e6_f_rr3.flac
lokey=76
hikey=76
lovel=85
seq_length=4
seq_position=3
pitch_keycenter=76
bend_up=75
bend_down=-75
lfo02_pitch_oncc113=33

<region>
sample=../Samples/green/ord/twang_e6_f_rr2.flac
lokey=76
hikey=76
lovel=85
seq_length=4
seq_position=2
pitch_keycenter=76
bend_up=75
bend_down=-75
lfo02_pitch_oncc113=33

<region>
sample=../Samples/green/ord/twang_e6_f_rr1.flac
lokey=76
hikey=76
lovel=85
seq_length=4
pitch_keycenter=76
bend_up=75
bend_down=-75
lfo02_pitch_oncc113=33

<region>
sample=../Samples/green/ord/twang_f6_p_rr2.flac
lokey=77
hikey=77
hivel=42
seq_length=2
seq_position=2
pitch_keycenter=77
bend_up=73
bend_down=-73
lfo02_pitch_oncc113=32
amp_velcurve_42=1

<region>
sample=../Samples/green/ord/twang_f6_p_rr1.flac
lokey=77
hikey=77
hivel=42
seq_length=2
pitch_keycenter=77
bend_up=73
bend_down=-73
lfo02_pitch_oncc113=32
amp_velcurve_42=1

<region>
sample=../Samples/green/ord/twang_f6_mf_rr2.flac
lokey=77
hikey=77
lovel=43
hivel=84
seq_length=2
seq_position=2
pitch_keycenter=77
bend_up=73
bend_down=-73
lfo02_pitch_oncc113=32
amp_velcurve_84=1

<region>
sample=../Samples/green/ord/twang_f6_mf_rr1.flac
lokey=77
hikey=77
lovel=43
hivel=84
seq_length=2
pitch_keycenter=77
bend_up=73
bend_down=-73
lfo02_pitch_oncc113=32
amp_velcurve_84=1

<region>
sample=../Samples/green/ord/twang_f6_f_rr2.flac
lokey=77
hikey=77
lovel=85
seq_length=2
seq_position=2
pitch_keycenter=77
bend_up=73
bend_down=-73
lfo02_pitch_oncc113=32

<region>
sample=../Samples/green/ord/twang_f6_f_rr1.flac
lokey=77
hikey=77
lovel=85
seq_length=2
pitch_keycenter=77
bend_up=73
bend_down=-73
lfo02_pitch_oncc113=32

<region>
sample=../Samples/green/ord/twang_gb6_p_rr2.flac
lokey=78
hikey=78
hivel=42
seq_length=2
seq_position=2
pitch_keycenter=78
bend_up=71
bend_down=-71
lfo02_pitch_oncc113=31
amp_velcurve_42=1

<region>
sample=../Samples/green/ord/twang_gb6_p_rr1.flac
lokey=78
hikey=78
hivel=42
seq_length=2
pitch_keycenter=78
bend_up=71
bend_down=-71
lfo02_pitch_oncc113=31
amp_velcurve_42=1

<region>
sample=../Samples/green/ord/twang_gb6_mf_rr2.flac
lokey=78
hikey=78
lovel=43
hivel=84
seq_length=2
seq_position=2
pitch_keycenter=78
bend_up=71
bend_down=-71
lfo02_pitch_oncc113=31
amp_velcurve_84=1

<region>
sample=../Samples/green/ord/twang_gb6_mf_rr1.flac
lokey=78
hikey=78
lovel=43
hivel=84
seq_length=2
pitch_keycenter=78
bend_up=71
bend_down=-71
lfo02_pitch_oncc113=31
amp_velcurve_84=1

<region>
sample=../Samples/green/ord/twang_gb6_f_rr2.flac
lokey=78
hikey=78
lovel=85
seq_length=2
seq_position=2
pitch_keycenter=78
bend_up=71
bend_down=-71
lfo02_pitch_oncc113=31

<region>
sample=../Samples/green/ord/twang_gb6_f_rr1.flac
lokey=78
hikey=78
lovel=85
seq_length=2
pitch_keycenter=78
bend_up=71
bend_down=-71
lfo02_pitch_oncc113=31

<region>
sample=../Samples/green/ord/twang_g6_p_rr2.flac
lokey=79
hikey=79
hivel=42
seq_length=2
seq_position=2
pitch_keycenter=79
bend_up=68
bend_down=-68
lfo02_pitch_oncc113=30
amp_velcurve_42=1

<region>
sample=../Samples/green/ord/twang_g6_p_rr1.flac
lokey=79
hikey=79
hivel=42
seq_length=2
pitch_keycenter=79
bend_up=68
bend_down=-68
lfo02_pitch_oncc113=30
amp_velcurve_42=1

<region>
sample=../Samples/green/ord/twang_g6_mf_rr2.flac
lokey=79
hikey=79
lovel=43
hivel=84
seq_length=2
seq_position=2
pitch_keycenter=79
bend_up=68
bend_down=-68
lfo02_pitch_oncc113=30
amp_velcurve_84=1

<region>
sample=../Samples/green/ord/twang_g6_mf_rr1.flac
lokey=79
hikey=79
lovel=43
hivel=84
seq_length=2
pitch_keycenter=79
bend_up=68
bend_down=-68
lfo02_pitch_oncc113=30
amp_velcurve_84=1

<region>
sample=../Samples/green/ord/twang_g6_f_rr2.flac
lokey=79
hikey=79
lovel=85
seq_length=2
seq_position=2
pitch_keycenter=79
bend_up=68
bend_down=-68
lfo02_pitch_oncc113=30

<region>
sample=../Samples/green/ord/twang_g6_f_rr1.flac
lokey=79
hikey=79
lovel=85
seq_length=2
pitch_keycenter=79
bend_up=68
bend_down=-68
lfo02_pitch_oncc113=30

<region>
sample=../Samples/green/ord/twang_ab6_p_rr2.flac
lokey=80
hikey=80
hivel=42
seq_length=2
seq_position=2
pitch_keycenter=80
bend_up=66
bend_down=-66
lfo02_pitch_oncc113=29
amp_velcurve_42=1

<region>
sample=../Samples/green/ord/twang_ab6_p_rr1.flac
lokey=80
hikey=80
hivel=42
seq_length=2
pitch_keycenter=80
bend_up=66
bend_down=-66
lfo02_pitch_oncc113=29
amp_velcurve_42=1

<region>
sample=../Samples/green/ord/twang_ab6_mf_rr2.flac
lokey=80
hikey=80
lovel=43
hivel=84
seq_length=2
seq_position=2
pitch_keycenter=80
bend_up=66
bend_down=-66
lfo02_pitch_oncc113=29
amp_velcurve_84=1

<region>
sample=../Samples/green/ord/twang_ab6_mf_rr1.flac
lokey=80
hikey=80
lovel=43
hivel=84
seq_length=2
pitch_keycenter=80
bend_up=66
bend_down=-66
lfo02_pitch_oncc113=29
amp_velcurve_84=1

<region>
sample=../Samples/green/ord/twang_ab6_f_rr2.flac
lokey=80
hikey=80
lovel=85
seq_length=2
seq_position=2
pitch_keycenter=80
bend_up=66
bend_down=-66
lfo02_pitch_oncc113=29

<region>
sample=../Samples/green/ord/twang_ab6_f_rr1.flac
lokey=80
hikey=80
lovel=85
seq_length=2
pitch_keycenter=80
bend_up=66
bend_down=-66
lfo02_pitch_oncc113=29

<region>
sample=../Samples/green/ord/twang_a6_p_rr2.flac
lokey=81
hikey=81
hivel=42
seq_length=2
seq_position=2
pitch_keycenter=81
bend_up=63
bend_down=-63
lfo02_pitch_oncc113=28
amp_velcurve_42=1

<region>
sample=../Samples/green/ord/twang_a6_p_rr1.flac
lokey=81
hikey=81
hivel=42
seq_length=2
pitch_keycenter=81
bend_up=63
bend_down=-63
lfo02_pitch_oncc113=28
amp_velcurve_42=1

<region>
sample=../Samples/green/ord/twang_a6_mf_rr2.flac
lokey=81
hikey=81
lovel=43
hivel=84
seq_length=2
seq_position=2
pitch_keycenter=81
bend_up=63
bend_down=-63
lfo02_pitch_oncc113=28
amp_velcurve_84=1

<region>
sample=../Samples/green/ord/twang_a6_mf_rr1.flac
lokey=81
hikey=81
lovel=43
hivel=84
seq_length=2
pitch_keycenter=81
bend_up=63
bend_down=-63
lfo02_pitch_oncc113=28
amp_velcurve_84=1

<region>
sample=../Samples/green/ord/twang_a6_f_rr2.flac
lokey=81
hikey=81
lovel=85
seq_length=2
seq_position=2
pitch_keycenter=81
bend_up=63
bend_down=-63
lfo02_pitch_oncc113=28

<region>
sample=../Samples/green/ord/twang_a6_f_rr1.flac
lokey=81
hikey=81
lovel=85
seq_length=2
pitch_keycenter=81
bend_up=63
bend_down=-63
lfo02_pitch_oncc113=28

<region>
sample=../Samples/green/ord/twang_bb6_p_rr2.flac
lokey=82
hikey=82
hivel=42
seq_length=2
seq_position=2
pitch_keycenter=82
bend_up=52
bend_down=-52
lfo02_pitch_oncc113=23
amp_velcurve_42=1

<region>
sample=../Samples/green/ord/twang_bb6_p_rr1.flac
lokey=82
hikey=82
hivel=42
seq_length=2
pitch_keycenter=82
bend_up=52
bend_down=-52
lfo02_pitch_oncc113=23
amp_velcurve_42=1

<region>
sample=../Samples/green/ord/twang_bb6_mf_rr2.flac
lokey=82
hikey=82
lovel=43
hivel=84
seq_length=2
seq_position=2
pitch_keycenter=82
bend_up=52
bend_down=-52
lfo02_pitch_oncc113=23
amp_velcurve_84=1

<region>
sample=../Samples/green/ord/twang_bb6_mf_rr1.flac
lokey=82
hikey=82
lovel=43
hivel=84
seq_length=2
pitch_keycenter=82
bend_up=52
bend_down=-52
lfo02_pitch_oncc113=23
amp_velcurve_84=1

<region>
sample=../Samples/green/ord/twang_bb6_f_rr2.flac
lokey=82
hikey=82
lovel=85
seq_length=2
seq_position=2
pitch_keycenter=82
bend_up=52
bend_down=-52
lfo02_pitch_oncc113=23

<region>
sample=../Samples/green/ord/twang_bb6_f_rr1.flac
lokey=82
hikey=82
lovel=85
seq_length=2
pitch_keycenter=82
bend_up=52
bend_down=-52
lfo02_pitch_oncc113=23

<region>
sample=../Samples/green/ord/twang_b6_p_rr2.flac
lokey=83
hikey=83
hivel=42
seq_length=2
seq_position=2
pitch_keycenter=83
bend_up=52
bend_down=-52
lfo02_pitch_oncc113=23
amp_velcurve_42=1

<region>
sample=../Samples/green/ord/twang_b6_p_rr1.flac
lokey=83
hikey=83
hivel=42
seq_length=2
pitch_keycenter=83
bend_up=52
bend_down=-52
lfo02_pitch_oncc113=23
amp_velcurve_42=1

<region>
sample=../Samples/green/ord/twang_b6_mf_rr2.flac
lokey=83
hikey=83
lovel=43
hivel=84
seq_length=2
seq_position=2
pitch_keycenter=83
bend_up=52
bend_down=-52
lfo02_pitch_oncc113=23
amp_velcurve_84=1

<region>
sample=../Samples/green/ord/twang_b6_mf_rr1.flac
lokey=83
hikey=83
lovel=43
hivel=84
seq_length=2
pitch_keycenter=83
bend_up=52
bend_down=-52
lfo02_pitch_oncc113=23
amp_velcurve_84=1

<region>
sample=../Samples/green/ord/twang_b6_f_rr2.flac
lokey=83
hikey=83
lovel=85
seq_length=2
seq_position=2
pitch_keycenter=83
bend_up=52
bend_down=-52
lfo02_pitch_oncc113=23

<region>
sample=../Samples/green/ord/twang_b6_f_rr1.flac
lokey=83
hikey=83
lovel=85
seq_length=2
pitch_keycenter=83
bend_up=52
bend_down=-52
lfo02_pitch_oncc113=23

<region>
sample=../Samples/green/ord/twang_c7_p_rr2.flac
lokey=84
hikey=84
hivel=42
seq_length=2
seq_position=2
pitch_keycenter=84
bend_up=52
bend_down=-52
lfo02_pitch_oncc113=23
amp_velcurve_42=1

<region>
sample=../Samples/green/ord/twang_c7_p_rr1.flac
lokey=84
hikey=84
hivel=42
seq_length=2
pitch_keycenter=84
bend_up=52
bend_down=-52
lfo02_pitch_oncc113=23
amp_velcurve_42=1

<region>
sample=../Samples/green/ord/twang_c7_mf_rr2.flac
lokey=84
hikey=84
lovel=43
hivel=84
seq_length=2
seq_position=2
pitch_keycenter=84
bend_up=52
bend_down=-52
lfo02_pitch_oncc113=23
amp_velcurve_84=1

<region>
sample=../Samples/green/ord/twang_c7_mf_rr1.flac
lokey=84
hikey=84
lovel=43
hivel=84
seq_length=2
pitch_keycenter=84
bend_up=52
bend_down=-52
lfo02_pitch_oncc113=23
amp_velcurve_84=1

<region>
sample=../Samples/green/ord/twang_c7_f_rr2.flac
lokey=84
hikey=84
lovel=85
seq_length=2
seq_position=2
pitch_keycenter=84
bend_up=52
bend_down=-52
lfo02_pitch_oncc113=23

<region>
sample=../Samples/green/ord/twang_c7_f_rr1.flac
lokey=84
hikey=84
lovel=85
seq_length=2
pitch_keycenter=84
bend_up=52
bend_down=-52
lfo02_pitch_oncc113=23

<region>
sample=../Samples/green/ord/twang_db7_p_rr2.flac
lokey=85
hikey=85
hivel=42
seq_length=2
seq_position=2
pitch_keycenter=85
bend_up=52
bend_down=-52
lfo02_pitch_oncc113=23
amp_velcurve_42=1

<region>
sample=../Samples/green/ord/twang_db7_p_rr1.flac
lokey=85
hikey=85
hivel=42
seq_length=2
pitch_keycenter=85
bend_up=52
bend_down=-52
lfo02_pitch_oncc113=23
amp_velcurve_42=1

<region>
sample=../Samples/green/ord/twang_db7_mf_rr2.flac
lokey=85
hikey=85
lovel=43
hivel=84
seq_length=2
seq_position=2
pitch_keycenter=85
bend_up=52
bend_down=-52
lfo02_pitch_oncc113=23
amp_velcurve_84=1

<region>
sample=../Samples/green/ord/twang_db7_mf_rr1.flac
lokey=85
hikey=85
lovel=43
hivel=84
seq_length=2
pitch_keycenter=85
bend_up=52
bend_down=-52
lfo02_pitch_oncc113=23
amp_velcurve_84=1

<region>
sample=../Samples/green/ord/twang_db7_f_rr2.flac
lokey=85
hikey=85
lovel=85
seq_length=2
seq_position=2
pitch_keycenter=85
bend_up=52
bend_down=-52
lfo02_pitch_oncc113=23

<region>
sample=../Samples/green/ord/twang_db7_f_rr1.flac
lokey=85
hikey=85
lovel=85
seq_length=2
pitch_keycenter=85
bend_up=52
bend_down=-52
lfo02_pitch_oncc113=23

<region>
sample=../Samples/green/ord/twang_d7_p_rr2.flac
lokey=86
hikey=86
hivel=42
seq_length=2
seq_position=2
pitch_keycenter=86
bend_up=52
bend_down=-52
lfo02_pitch_oncc113=23
amp_velcurve_42=1

<region>
sample=../Samples/green/ord/twang_d7_p_rr1.flac
lokey=86
hikey=86
hivel=42
seq_length=2
pitch_keycenter=86
bend_up=52
bend_down=-52
lfo02_pitch_oncc113=23
amp_velcurve_42=1

<region>
sample=../Samples/green/ord/twang_d7_mf_rr2.flac
lokey=86
hikey=86
lovel=43
hivel=84
seq_length=2
seq_position=2
pitch_keycenter=86
bend_up=52
bend_down=-52
lfo02_pitch_oncc113=23
amp_velcurve_84=1

<region>
sample=../Samples/green/ord/twang_d7_mf_rr1.flac
lokey=86
hikey=86
lovel=43
hivel=84
seq_length=2
pitch_keycenter=86
bend_up=52
bend_down=-52
lfo02_pitch_oncc113=23
amp_velcurve_84=1

<region>
sample=../Samples/green/ord/twang_d7_f_rr2.flac
lokey=86
hikey=86
lovel=85
seq_length=2
seq_position=2
pitch_keycenter=86
bend_up=52
bend_down=-52
lfo02_pitch_oncc113=23

<region>
sample=../Samples/green/ord/twang_d7_f_rr1.flac
lokey=86
hikey=86
lovel=85
seq_length=2
pitch_keycenter=86
bend_up=52
bend_down=-52
lfo02_pitch_oncc113=23
